<?xml version="1.0" encoding="utf-8"?>
<!-- Generator: Adobe Illustrator 16.0.0, SVG Export Plug-In . SVG Version: 6.00 Build 0)  -->
<!DOCTYPE svg PUBLIC "-//W3C//DTD SVG 1.1//EN" "http://www.w3.org/Graphics/SVG/1.1/DTD/svg11.dtd">
<svg version="1.1" id="Layer_1" xmlns="http://www.w3.org/2000/svg" xmlns:xlink="http://www.w3.org/1999/xlink" x="0px" y="0px"
	 width="516.324px" height="421.332px" viewBox="0 0 516.324 421.332" enable-background="new 0 0 516.324 421.332"
	 xml:space="preserve">
<g>
	<g>
		<g>
			<rect x="287.605" y="278" fill="#C6D9F1" width="15" height="25"/>
		</g>
		<g>
			<rect x="287.605" y="242" fill="#C6D9F1" width="32" height="24"/>
		</g>
		<g>
			<rect x="287.605" y="205" fill="#C6D9F1" width="102" height="26"/>
		</g>
		<g>
			<g>
				<rect x="287.605" y="169" fill="#C6D9F1" width="118" height="25"/>
			</g>
		</g>
		<g>
			<g>
				<rect x="287.605" y="133" fill="#8EB4E3" width="121" height="25"/>
			</g>
		</g>
		<g>
			<g>
				<rect x="287.605" y="97" fill="#558ED5" width="141" height="24"/>
			</g>
		</g>
		<g>
			<rect x="287.605" y="61" fill="#1D5E93" width="152" height="24"/>
		</g>
		<g>
			<g>
				<rect x="287.605" y="24" fill="#17375E" width="168" height="26"/>
			</g>
		</g>
		<g>
			<g>
				<line fill="none" stroke="#798AA2" stroke-width="2" stroke-miterlimit="10" x1="408.605" y1="14" x2="408.605" y2="16"/>
				
					<line fill="none" stroke="#798AA2" stroke-width="2" stroke-miterlimit="10" stroke-dasharray="4,2" x1="408.605" y1="18" x2="408.605" y2="309"/>
				<line fill="none" stroke="#798AA2" stroke-width="2" stroke-miterlimit="10" x1="408.605" y1="310" x2="408.605" y2="312"/>
			</g>
		</g>
		<g>
			<g>
				
					<text transform="matrix(1 0 0 1 378.6055 328.3359)" fill="#798AA2" font-family="'NotoSansKR-Medium-KSCpc-EUC-H'" font-size="12">전체 평균 12%</text>
			</g>
		</g>
		<g>
			<g>
				
					<text transform="matrix(1 0 0 1 251.6445 41.3359)" fill="#656C77" font-family="'NotoSansKR-Regular-KSCpc-EUC-H'" font-size="12"> 18%</text>
				
					<text transform="matrix(1 0 0 1 251.6445 77.4316)" fill="#656C77" font-family="'NotoSansKR-Regular-KSCpc-EUC-H'" font-size="12"> 16%</text>
				
					<text transform="matrix(1 0 0 1 251.6445 113.5273)" fill="#656C77" font-family="'NotoSansKR-Regular-KSCpc-EUC-H'" font-size="12"> 15%</text>
				
					<text transform="matrix(1 0 0 1 251.6445 149.623)" fill="#656C77" font-family="'NotoSansKR-Regular-KSCpc-EUC-H'" font-size="12"> 12%</text>
				
					<text transform="matrix(1 0 0 1 251.6445 185.7197)" fill="#656C77" font-family="'NotoSansKR-Regular-KSCpc-EUC-H'" font-size="12"> 11%</text>
				
					<text transform="matrix(1 0 0 1 258.6055 221.8154)" fill="#656C77" font-family="'NotoSansKR-Regular-KSCpc-EUC-H'" font-size="12"> 9%</text>
				
					<text transform="matrix(1 0 0 1 258.6055 257.9111)" fill="#656C77" font-family="'NotoSansKR-Regular-KSCpc-EUC-H'" font-size="12"> 2%</text>
				
					<text transform="matrix(1 0 0 1 258.6055 294.0068)" fill="#656C77" font-family="'NotoSansKR-Regular-KSCpc-EUC-H'" font-size="12"> 1%</text>
			</g>
		</g>
		<g>
			
				<text transform="matrix(1 0 0 1 297.2715 41.3359)" fill="#FFFFFF" font-family="'NotoSansKR-Medium-KSCpc-EUC-H'" font-size="12">Korea</text>
			
				<text transform="matrix(1 0 0 1 297.2715 77.4316)" fill="#FFFFFF" font-family="'NotoSansKR-Medium-KSCpc-EUC-H'" font-size="12">USA</text>
			
				<text transform="matrix(1 0 0 1 297.2715 113.5273)" fill="#FFFFFF" font-family="'NotoSansKR-Medium-KSCpc-EUC-H'" font-size="12">Russia</text>
		</g>
		<g>
			
				<text transform="matrix(1 0 0 1 297.2715 149.623)" fill="#333333" font-family="'NotoSansKR-Medium-KSCpc-EUC-H'" font-size="12">China</text>
			
				<text transform="matrix(1 0 0 1 297.2715 185.7197)" fill="#333333" font-family="'NotoSansKR-Medium-KSCpc-EUC-H'" font-size="12">North Korea</text>
			
				<text transform="matrix(1 0 0 1 297.2715 221.8154)" fill="#333333" font-family="'NotoSansKR-Medium-KSCpc-EUC-H'" font-size="12">India</text>
			
				<text transform="matrix(1 0 0 1 297.2715 257.9111)" fill="#333333" font-family="'NotoSansKR-Medium-KSCpc-EUC-H'" font-size="12">Ga Bong</text>
			
				<text transform="matrix(1 0 0 1 297.2715 294.0068)" fill="#333333" font-family="'NotoSansKR-Medium-KSCpc-EUC-H'" font-size="12">Zimbabwe</text>
		</g>
		<polyline fill="none" stroke="#CECECE" stroke-miterlimit="10" points="478.605,311.5 287.105,311.5 287.105,14 		"/>
	</g>
	<g>
		<g>
			<rect x="44.105" y="278" fill="#B2BDBE" width="15" height="25"/>
		</g>
		<g>
			<rect x="44.105" y="242" fill="#B2BDBE" width="32" height="24"/>
		</g>
		<g>
			<rect x="44.105" y="205" fill="#B2BDBE" width="102" height="26"/>
		</g>
		<g>
			<rect x="44.105" y="169" fill="#B2BDBE" width="118" height="25"/>
		</g>
		<g>
			<rect x="44.105" y="133" fill="#B2BDBE" width="121" height="25"/>
		</g>
		<g>
			<rect x="44.105" y="97" fill="#91A4A5" width="141" height="24"/>
		</g>
		<g>
			<rect x="44.105" y="61" fill="#789092" width="152" height="24"/>
		</g>
		<g>
			<g>
				<rect x="44.105" y="24" fill="#607D80" width="168" height="26"/>
			</g>
		</g>
		<g>
			<g>
				<line fill="none" stroke="#185354" stroke-width="2" stroke-miterlimit="10" x1="165.105" y1="14" x2="165.105" y2="16"/>
				
					<line fill="none" stroke="#185354" stroke-width="2" stroke-miterlimit="10" stroke-dasharray="4,2" x1="165.105" y1="18" x2="165.105" y2="309"/>
				<line fill="none" stroke="#185354" stroke-width="2" stroke-miterlimit="10" x1="165.105" y1="310" x2="165.105" y2="312"/>
			</g>
		</g>
		
			<text transform="matrix(1 0 0 1 135.105 328.3359)" fill="#185354" font-family="'NotoSansKR-Medium-KSCpc-EUC-H'" font-size="12">전체 평균 12%</text>
		<g>
			<text transform="matrix(1 0 0 1 8.145 41.3359)" fill="#444444" font-family="'NotoSansKR-Regular-KSCpc-EUC-H'" font-size="12"> 18%</text>
			<text transform="matrix(1 0 0 1 8.145 77.4316)" fill="#444444" font-family="'NotoSansKR-Regular-KSCpc-EUC-H'" font-size="12"> 16%</text>
			
				<text transform="matrix(1 0 0 1 8.145 113.5273)" fill="#444444" font-family="'NotoSansKR-Regular-KSCpc-EUC-H'" font-size="12"> 15%</text>
			<text transform="matrix(1 0 0 1 8.145 149.623)" fill="#444444" font-family="'NotoSansKR-Regular-KSCpc-EUC-H'" font-size="12"> 12%</text>
			
				<text transform="matrix(1 0 0 1 8.145 185.7197)" fill="#444444" font-family="'NotoSansKR-Regular-KSCpc-EUC-H'" font-size="12"> 11%</text>
			
				<text transform="matrix(1 0 0 1 15.105 221.8154)" fill="#444444" font-family="'NotoSansKR-Regular-KSCpc-EUC-H'" font-size="12"> 9%</text>
			
				<text transform="matrix(1 0 0 1 15.105 257.9111)" fill="#444444" font-family="'NotoSansKR-Regular-KSCpc-EUC-H'" font-size="12"> 2%</text>
			
				<text transform="matrix(1 0 0 1 15.105 294.0068)" fill="#444444" font-family="'NotoSansKR-Regular-KSCpc-EUC-H'" font-size="12"> 1%</text>
		</g>
		<g>
			<text transform="matrix(1 0 0 1 53.772 41.3359)" fill="#333333" font-family="'NotoSansKR-Medium-KSCpc-EUC-H'" font-size="12">Korea</text>
			<text transform="matrix(1 0 0 1 53.772 77.4316)" fill="#333333" font-family="'NotoSansKR-Medium-KSCpc-EUC-H'" font-size="12">USA</text>
			
				<text transform="matrix(1 0 0 1 53.772 113.5273)" fill="#333333" font-family="'NotoSansKR-Medium-KSCpc-EUC-H'" font-size="12">Russia</text>
			<text transform="matrix(1 0 0 1 53.772 149.623)" fill="#333333" font-family="'NotoSansKR-Medium-KSCpc-EUC-H'" font-size="12">China</text>
			
				<text transform="matrix(1 0 0 1 53.772 185.7197)" fill="#333333" font-family="'NotoSansKR-Medium-KSCpc-EUC-H'" font-size="12">North Korea</text>
			
				<text transform="matrix(1 0 0 1 53.772 221.8154)" fill="#333333" font-family="'NotoSansKR-Medium-KSCpc-EUC-H'" font-size="12">India</text>
			
				<text transform="matrix(1 0 0 1 53.772 257.9111)" fill="#333333" font-family="'NotoSansKR-Medium-KSCpc-EUC-H'" font-size="12">Ga Bong</text>
			
				<text transform="matrix(1 0 0 1 53.772 294.0068)" fill="#333333" font-family="'NotoSansKR-Medium-KSCpc-EUC-H'" font-size="12">Zimbabwe</text>
		</g>
		<polyline fill="none" stroke="#999999" stroke-miterlimit="10" points="235.105,311.5 43.605,311.5 43.605,14 		"/>
	</g>
</g>
<g>
	<g>
		<rect x="286.862" y="354" fill="none" stroke="#CCCCCC" stroke-miterlimit="10" width="42.718" height="54.369"/>
		<rect x="287.025" y="354" fill="#656C77" width="42.471" height="38.361"/>
		<g>
			<text transform="matrix(1 0 0 1 292.3154 403.084)" fill="#131313" font-family="'ArialUnicodeMS'" font-size="8.2202">#656c77</text>
		</g>
	</g>
	<g>
		<rect x="335.735" y="354" fill="none" stroke="#CCCCCC" stroke-miterlimit="10" width="42.719" height="54.369"/>
		<rect x="335.898" y="354" fill="#D6D6D6" width="42.471" height="38.361"/>
		<g>
			<text transform="matrix(1 0 0 1 341.0342 403.084)" fill="#131313" font-family="'ArialUnicodeMS'" font-size="8.2202">#cecece</text>
		</g>
	</g>
	<g>
		<rect x="384.608" y="354" fill="none" stroke="#CCCCCC" stroke-miterlimit="10" width="42.719" height="54.369"/>
		<rect x="384.772" y="354" fill="#798AA2" width="42.47" height="38.361"/>
		<g>
			<text transform="matrix(1 0 0 1 389.2158 403.084)" fill="#131313" font-family="'ArialUnicodeMS'" font-size="8.2202">#798aa2</text>
		</g>
	</g>
	<g>
		<rect x="433.481" y="354" fill="none" stroke="#CCCCCC" stroke-miterlimit="10" width="42.719" height="54.369"/>
		<rect x="433.645" y="354" fill="#333333" width="42.471" height="38.361"/>
		<g>
			<text transform="matrix(1 0 0 1 438.0879 403.084)" fill="#131313" font-family="'ArialUnicodeMS'" font-size="8.2202">#333333</text>
		</g>
	</g>
</g>
<g>
	<g>
		<rect x="43.55" y="354" fill="none" stroke="#CCCCCC" stroke-miterlimit="10" width="42.718" height="54.369"/>
		<rect x="43.746" y="354" fill="#444444" width="42.471" height="38.361"/>
		<g>
			<text transform="matrix(1 0 0 1 48.9087 403.084)" fill="#131313" font-family="'ArialUnicodeMS'" font-size="8.2202">#444444</text>
		</g>
	</g>
	<g>
		<rect x="92.423" y="354" fill="none" stroke="#CCCCCC" stroke-miterlimit="10" width="42.718" height="54.369"/>
		<rect x="92.584" y="354" fill="#999999" width="42.471" height="38.361"/>
		<g>
			<text transform="matrix(1 0 0 1 97.063 403.084)" fill="#131313" font-family="'ArialUnicodeMS'" font-size="8.2202">#999999</text>
		</g>
	</g>
	<g>
		<rect x="141.296" y="354" fill="none" stroke="#CCCCCC" stroke-miterlimit="10" width="42.718" height="54.369"/>
		<rect x="141.458" y="354" fill="#185354" width="42.471" height="38.361"/>
		<g>
			<text transform="matrix(1 0 0 1 145.9365 403.084)" fill="#131313" font-family="'ArialUnicodeMS'" font-size="8.2202">#185354</text>
		</g>
	</g>
	<g>
		<rect x="190.169" y="354" fill="none" stroke="#CCCCCC" stroke-miterlimit="10" width="42.718" height="54.369"/>
		<rect x="190.332" y="354" fill="#333333" width="42.472" height="38.361"/>
		<g>
			<text transform="matrix(1 0 0 1 194.7759 403.084)" fill="#131313" font-family="'ArialUnicodeMS'" font-size="8.2202">#333333</text>
		</g>
	</g>
</g>
</svg>
