<?xml version="1.0" encoding="utf-8"?>
<!-- Generator: Adobe Illustrator 16.0.0, SVG Export Plug-In . SVG Version: 6.00 Build 0)  -->
<!DOCTYPE svg PUBLIC "-//W3C//DTD SVG 1.1//EN" "http://www.w3.org/Graphics/SVG/1.1/DTD/svg11.dtd">
<svg version="1.1" id="Layer_1" xmlns="http://www.w3.org/2000/svg" xmlns:xlink="http://www.w3.org/1999/xlink" x="0px" y="0px"
	 width="235px" height="331px" viewBox="0 0 235 331" enable-background="new 0 0 235 331" xml:space="preserve">
<g>
	<rect x="43" y="272" fill="#B2BDBE" width="15" height="25"/>
</g>
<g>
	<rect x="43" y="236" fill="#B2BDBE" width="32" height="24"/>
</g>
<g>
	<rect x="43" y="199" fill="#B2BDBE" width="102" height="26"/>
</g>
<g>
	<rect x="43" y="163" fill="#B2BDBE" width="118" height="25"/>
</g>
<g>
	<rect x="43" y="127" fill="#B2BDBE" width="121" height="25"/>
</g>
<g>
	<rect x="43" y="91" fill="#91A4A5" width="141" height="24"/>
</g>
<g>
	<rect x="43" y="55" fill="#789092" width="152" height="24"/>
</g>
<g>
	<g>
		<rect x="43" y="18" fill="#607D80" width="168" height="26"/>
	</g>
</g>
<g>
	<g>
		<line fill="none" stroke="#185354" stroke-width="2" stroke-miterlimit="10" x1="164" y1="8" x2="164" y2="10"/>
		
			<line fill="none" stroke="#185354" stroke-width="2" stroke-miterlimit="10" stroke-dasharray="4,2" x1="164" y1="12" x2="164" y2="303"/>
		<line fill="none" stroke="#185354" stroke-width="2" stroke-miterlimit="10" x1="164" y1="304" x2="164" y2="306"/>
	</g>
</g>
<text transform="matrix(1 0 0 1 134 322.3359)" fill="#185354" font-family="'NotoSansKR-Medium-KSCpc-EUC-H'" font-size="12">전체 평균 12%</text>
<g>
	<text transform="matrix(1 0 0 1 7.04 35.3359)" fill="#444444" font-family="'NotoSansKR-Regular-KSCpc-EUC-H'" font-size="12"> 18%</text>
	<text transform="matrix(1 0 0 1 7.04 71.4316)" fill="#444444" font-family="'NotoSansKR-Regular-KSCpc-EUC-H'" font-size="12"> 16%</text>
	<text transform="matrix(1 0 0 1 7.04 107.5273)" fill="#444444" font-family="'NotoSansKR-Regular-KSCpc-EUC-H'" font-size="12"> 15%</text>
	<text transform="matrix(1 0 0 1 7.04 143.623)" fill="#444444" font-family="'NotoSansKR-Regular-KSCpc-EUC-H'" font-size="12"> 12%</text>
	<text transform="matrix(1 0 0 1 7.04 179.7197)" fill="#444444" font-family="'NotoSansKR-Regular-KSCpc-EUC-H'" font-size="12"> 11%</text>
	<text transform="matrix(1 0 0 1 14 215.8154)" fill="#444444" font-family="'NotoSansKR-Regular-KSCpc-EUC-H'" font-size="12"> 9%</text>
	<text transform="matrix(1 0 0 1 14 251.9111)" fill="#444444" font-family="'NotoSansKR-Regular-KSCpc-EUC-H'" font-size="12"> 2%</text>
	<text transform="matrix(1 0 0 1 14 288.0068)" fill="#444444" font-family="'NotoSansKR-Regular-KSCpc-EUC-H'" font-size="12"> 1%</text>
</g>
<g>
	<text transform="matrix(1 0 0 1 52.667 35.3359)" fill="#333333" font-family="'NotoSansKR-Medium-KSCpc-EUC-H'" font-size="12">Korea</text>
	<text transform="matrix(1 0 0 1 52.667 71.4316)" fill="#333333" font-family="'NotoSansKR-Medium-KSCpc-EUC-H'" font-size="12">USA</text>
	<text transform="matrix(1 0 0 1 52.667 107.5273)" fill="#333333" font-family="'NotoSansKR-Medium-KSCpc-EUC-H'" font-size="12">Russia</text>
	<text transform="matrix(1 0 0 1 52.667 143.623)" fill="#333333" font-family="'NotoSansKR-Medium-KSCpc-EUC-H'" font-size="12">China</text>
	<text transform="matrix(1 0 0 1 52.667 179.7197)" fill="#333333" font-family="'NotoSansKR-Medium-KSCpc-EUC-H'" font-size="12">North Korea</text>
	<text transform="matrix(1 0 0 1 52.667 215.8154)" fill="#333333" font-family="'NotoSansKR-Medium-KSCpc-EUC-H'" font-size="12">India</text>
	<text transform="matrix(1 0 0 1 52.667 251.9111)" fill="#333333" font-family="'NotoSansKR-Medium-KSCpc-EUC-H'" font-size="12">Ga Bong</text>
	<text transform="matrix(1 0 0 1 52.667 288.0068)" fill="#333333" font-family="'NotoSansKR-Medium-KSCpc-EUC-H'" font-size="12">Zimbabwe</text>
</g>
<polyline fill="none" stroke="#999999" stroke-miterlimit="10" points="234,305.5 42.5,305.5 42.5,8 "/>
</svg>
