<?xml version="1.0" encoding="utf-8"?>
<!-- Generator: Adobe Illustrator 16.0.0, SVG Export Plug-In . SVG Version: 6.00 Build 0)  -->
<!DOCTYPE svg PUBLIC "-//W3C//DTD SVG 1.1//EN" "http://www.w3.org/Graphics/SVG/1.1/DTD/svg11.dtd">
<svg version="1.1" id="Layer_1" xmlns="http://www.w3.org/2000/svg" xmlns:xlink="http://www.w3.org/1999/xlink" x="0px" y="0px"
	 width="402.734px" height="77.281px" viewBox="0 0 402.734 77.281" enable-background="new 0 0 402.734 77.281"
	 xml:space="preserve">
<symbol  id="Intellytics_Dashboard" viewBox="-15 -15 30 30">
	<g>
		<g>
			<path fill="#4D4DDB" d="M4.793,0.841H15v7.164c0,1.295-0.098,2.388-0.293,3.273c-0.193,0.886-0.524,1.604-0.99,2.152
				c-0.465,0.548-1.086,0.947-1.865,1.196C11.075,14.875,10.104,15,8.938,15H8.756H4.793V0.841z"/>
			<polygon fill="#FF7900" points="1.973,0.841 1.973,15 -2.207,15 -3.763,15 -15,15 -15,5.385 -15,0.841 			"/>
			<path fill="#207589" d="M-5.587-1.978H-15v-6.027c0-1.296,0.096-2.387,0.291-3.274c0.193-0.886,0.524-1.604,0.991-2.15
				c0.466-0.549,1.087-0.947,1.864-1.197C-11.076-14.875-10.104-15-8.938-15h0.181h3.172L-5.587-1.978L-5.587-1.978z"/>
			<polygon fill="#D82121" points="-2.768,-1.978 -2.768,-15 2.205,-15 3.762,-15 15,-15 15,-5.385 15,-1.978 			"/>
		</g>
	</g>
</symbol>
<g>
	
		<use xlink:href="#Intellytics_Dashboard"  width="30" height="30" x="-15" y="-15" transform="matrix(1 0 0 -1 15 15.3306)" overflow="visible"/>
	<g id="Title_1_">
		<g>
			<g>
				<path fill="#333333" d="M53.023,71.762c-1.824,0-3.195-1.289-3.195-3.109c0-1.807,1.371-3.082,3.195-3.082
					c1.838,0,3.225,1.275,3.225,3.082C56.248,70.473,54.861,71.762,53.023,71.762z M53.023,70.768c1.221,0,2.127-0.869,2.127-2.115
					c0-1.219-0.906-2.088-2.127-2.088c-1.193,0-2.099,0.869-2.099,2.088C50.925,69.898,51.83,70.768,53.023,70.768z M60.006,76.034
					v0.938h-8.285v-4.034h1.125v3.096H60.006z M59.636,73.877h-1.125v-9.175h1.125V73.877z"/>
				<path fill="#333333" d="M67.896,70.613c-1.496,0.28-2.73,0.336-4.527,0.336h-0.781v-5.505h4.65v0.911h-3.581v1.344h3.101v0.883
					h-3.101v1.471c1.591,0,2.757-0.056,4.143-0.322L67.896,70.613z M72.875,76.217v0.896h-8.559v-3.012h6.981v-1.148h-7.01v-0.896
					h8.121v2.898h-6.982v1.262H72.875z M68.952,68.441H67.32v-0.924h1.632v-2.592h1.07v6.43h-1.07V68.441z M72.409,71.482h-1.083
					v-6.78h1.083V71.482z"/>
				<path fill="#333333" d="M76.349,73.275c2.017,0,3.827-0.099,5.98-0.449l0.11,0.939c-2.223,0.377-4.088,0.461-6.201,0.461h-1.015
					v-4.818h4.526v-2.619h-4.567v-0.938h5.706v4.497h-4.54V73.275z M84.606,64.674v12.594h-1.125V64.674H84.606z"/>
				<path fill="#333333" d="M94.678,71.258c-1.797,0.309-3.293,0.363-5.98,0.363h-1.002v-6.078h5.871v0.924H88.82v1.625h4.403v0.91
					H88.82v1.695c2.564,0,4.02-0.057,5.734-0.35L94.678,71.258z M88.861,72.953h8.23v4.3h-1.125v-3.376h-7.105V72.953z
					 M97.092,64.688v7.648h-1.125v-7.648H97.092z"/>
				<path fill="#333333" d="M110.633,74.619v0.953H99.48v-0.953H110.633z M109.577,71.958c-1.866-0.435-3.786-1.778-4.567-3.628
					c-0.783,1.835-2.703,3.18-4.555,3.628l-0.508-0.952c2.154-0.435,4.473-2.326,4.473-4.469V65.57h1.18v0.967
					c0,2.143,2.332,4.049,4.484,4.469L109.577,71.958z"/>
				<path fill="#333333" d="M116.453,73.205c1.646-0.014,2.812-0.084,4.156-0.379l0.096,0.953c-1.468,0.322-2.717,0.378-4.555,0.378
					h-0.809v-7.942h4.581v0.938h-3.47V73.205z M125.355,64.688v12.565h-1.084V70.67h-1.742v5.953h-1.057V64.969h1.057v4.762h1.742
					v-5.043H125.355z"/>
				<path fill="#333333" d="M131.75,68.035c0,2.298,1.468,4.609,3.292,5.449l-0.672,0.925c-1.399-0.7-2.579-2.185-3.169-3.978
					c-0.563,1.891-1.742,3.459-3.183,4.216l-0.686-0.938c1.811-0.883,3.306-3.292,3.306-5.674v-2.254h1.111V68.035z M137.457,64.688
					v12.594h-1.125V64.688H137.457z"/>
				<path fill="#333333" d="M151.025,74.703v0.939h-11.152v-0.939h4.993V72h-3.677v-6.416h1.111v2.242h6.283v-2.242h1.098V72h-3.677
					v2.703H151.025z M142.301,71.076h6.283v-2.313h-6.283V71.076z"/>
				<path fill="#333333" d="M163.511,74.605v0.953h-11.166v-0.953H163.511z M162.221,71.65h-8.449v-5.813h8.326v0.952h-7.215v3.922
					h7.338V71.65z"/>
				<path fill="#333333" d="M178.904,72.616h-2.881v4.637h-1.124v-4.637h-3.128v4.637h-1.111v-4.637h-2.881v-0.952h11.125V72.616z
					 M177.588,69.857h-8.395v-4.525h1.124v3.6h7.271V69.857z"/>
				<path fill="#333333" d="M191.418,74.619v0.953h-11.152v-0.953H191.418z M190.361,71.958c-1.865-0.435-3.786-1.778-4.568-3.628
					c-0.781,1.835-2.702,3.18-4.554,3.628l-0.508-0.952c2.153-0.435,4.472-2.326,4.472-4.469V65.57h1.18v0.967
					c0,2.143,2.332,4.049,4.486,4.469L190.361,71.958z"/>
				<path fill="#333333" d="M194.246,73.205c1.398,0,2.729-0.057,4.307-0.336l0.096,0.938c-1.714,0.295-3.113,0.365-4.678,0.365
					h-0.809v-4.651h3.292v-2.507h-3.333v-0.939h4.417v4.357h-3.292V73.205z M199.637,64.996h1.057v11.599h-1.057V70.15h-1.522
					v-0.951h1.522V64.996z M203.203,64.688v12.565h-1.084V64.688H203.203z"/>
				<path fill="#333333" d="M206.923,73.303c2.223,0,3.649-0.084,5.323-0.393l0.123,0.939c-1.783,0.322-3.279,0.392-5.625,0.392
					h-0.945v-8.419h5.692v0.953h-4.568v2.592h4.033v0.924h-4.033V73.303z M215.373,64.674v12.594h-1.125v-6.893h-2.537v-0.952h2.537
					v-4.749H215.373z"/>
			</g>
		</g>
		<g>
			<path fill="#4A45BD" d="M50.791,0.36h4.158v21h-4.158V0.36z"/>
			<path fill="#4A45BD" d="M59.106,0.36h3.834l8.856,12.93V0.36H75.9v21h-3.536L63.211,8.01v13.35h-4.104V0.36z"/>
			<path fill="#4A45BD" d="M84.271,4.62h-5.751V0.36h15.66v4.26H88.43v16.74h-4.158V4.62z"/>
			<path fill="#4A45BD" d="M96.799,0.36h14.229v4.11h-10.125v4.26h8.91v4.11h-8.91v4.41h10.26v4.11H96.799V0.36z"/>
			<path fill="#4A45BD" d="M114.322,0.36h4.158v16.83h9.423v4.17h-13.581V0.36z"/>
			<path fill="#4A45BD" d="M130.468,0.36h4.158v16.83h9.423v4.17h-13.581V0.36z"/>
			<path fill="#4A45BD" d="M150.853,13.08L143.59,0.36h4.859l4.51,8.43l4.59-8.43h4.725l-7.263,12.63v8.37h-4.158V13.08z"/>
			<path fill="#4A45BD" d="M169.24,4.62h-5.751V0.36h15.66v4.26h-5.751v16.74h-4.158V4.62z"/>
			<path fill="#4A45BD" d="M181.957,0.36h4.158v21h-4.158V0.36z"/>
			<path fill="#4A45BD" d="M199.13,21.72c-1.387,0-2.673-0.28-3.861-0.84c-1.188-0.56-2.214-1.325-3.078-2.295
				c-0.863-0.97-1.538-2.115-2.024-3.435s-0.729-2.73-0.729-4.23v-0.06c0-1.5,0.243-2.905,0.729-4.215s1.161-2.46,2.024-3.45
				c0.864-0.99,1.899-1.77,3.105-2.34C196.502,0.285,197.834,0,199.292,0c0.882,0,1.688,0.08,2.416,0.24
				c0.729,0.161,1.391,0.38,1.984,0.66c0.595,0.28,1.144,0.62,1.647,1.02c0.504,0.4,0.972,0.84,1.404,1.32l-2.646,3.39
				c-0.738-0.74-1.489-1.32-2.254-1.74c-0.766-0.42-1.625-0.63-2.579-0.63c-0.792,0-1.525,0.17-2.2,0.51
				c-0.675,0.34-1.256,0.81-1.741,1.41c-0.486,0.6-0.864,1.295-1.135,2.085c-0.27,0.791-0.404,1.635-0.404,2.535v0.06
				c0,0.9,0.135,1.75,0.404,2.55c0.271,0.8,0.644,1.5,1.121,2.1c0.477,0.6,1.053,1.075,1.728,1.425s1.418,0.525,2.228,0.525
				c1.08,0,1.993-0.22,2.74-0.66c0.747-0.439,1.489-1.04,2.228-1.8l2.646,2.97c-0.486,0.581-0.99,1.1-1.512,1.56
				c-0.522,0.46-1.094,0.855-1.715,1.185s-1.301,0.581-2.038,0.75C200.876,21.635,200.048,21.72,199.13,21.72z"/>
			<path fill="#4A45BD" d="M216.382,21.66c-1.439,0-2.853-0.275-4.238-0.825c-1.387-0.55-2.646-1.395-3.78-2.535l2.457-3.27
				c0.864,0.78,1.75,1.4,2.659,1.86c0.909,0.46,1.903,0.69,2.983,0.69c0.864,0,1.535-0.175,2.012-0.525
				c0.477-0.35,0.716-0.834,0.716-1.455v-0.06c0-0.3-0.05-0.565-0.149-0.795c-0.1-0.229-0.289-0.445-0.568-0.645
				s-0.668-0.4-1.164-0.6c-0.496-0.2-1.142-0.41-1.936-0.63c-0.957-0.259-1.823-0.55-2.599-0.87
				c-0.776-0.32-1.436-0.715-1.977-1.185c-0.542-0.47-0.961-1.055-1.259-1.755s-0.447-1.57-0.447-2.61V6.39
				c0-0.96,0.161-1.825,0.483-2.595c0.321-0.77,0.773-1.435,1.354-1.995c0.581-0.56,1.275-0.99,2.082-1.29
				c0.807-0.3,1.696-0.45,2.669-0.45c1.386,0,2.659,0.23,3.82,0.69s2.228,1.12,3.199,1.98l-2.16,3.48
				c-0.846-0.64-1.674-1.145-2.483-1.515c-0.811-0.37-1.62-0.555-2.431-0.555c-0.81,0-1.417,0.175-1.822,0.525
				s-0.607,0.785-0.607,1.305v0.06c0,0.34,0.059,0.635,0.176,0.885s0.329,0.475,0.637,0.675c0.307,0.2,0.726,0.39,1.259,0.57
				c0.532,0.18,1.204,0.39,2.017,0.63c0.956,0.28,1.809,0.595,2.559,0.945c0.748,0.35,1.38,0.77,1.895,1.26
				c0.515,0.491,0.902,1.065,1.164,1.725c0.262,0.66,0.393,1.451,0.393,2.37v0.06c0,1.04-0.17,1.965-0.51,2.775
				s-0.813,1.49-1.421,2.04c-0.608,0.55-1.334,0.97-2.177,1.26C218.343,21.515,217.408,21.66,216.382,21.66z"/>
			<path fill="#4A45BD" d="M233.878,0.36h7.371c1.476,0,2.831,0.265,4.063,0.795c1.233,0.53,2.295,1.265,3.187,2.205
				c0.891,0.94,1.579,2.045,2.065,3.315c0.486,1.271,0.729,2.645,0.729,4.125v0.06c0,1.48-0.242,2.86-0.729,4.14
				s-1.175,2.39-2.065,3.33c-0.892,0.94-1.953,1.68-3.187,2.22c-1.232,0.54-2.588,0.81-4.063,0.81h-7.371V0.36z M241.249,17.19
				c0.846,0,1.62-0.15,2.322-0.45c0.702-0.3,1.3-0.729,1.796-1.29c0.494-0.56,0.882-1.22,1.161-1.98
				c0.278-0.76,0.418-1.609,0.418-2.55v-0.06c0-0.92-0.14-1.77-0.418-2.55c-0.279-0.78-0.667-1.45-1.161-2.01
				c-0.496-0.56-1.094-0.995-1.796-1.305c-0.702-0.31-1.477-0.465-2.322-0.465h-3.213v12.66H241.249z"/>
			<path fill="#4A45BD" d="M258.745,0.21h3.834l8.1,21.15h-4.347l-1.728-4.71h-7.992l-1.729,4.71h-4.238L258.745,0.21z
				 M263.119,12.57l-2.511-6.81l-2.512,6.81H263.119z"/>
			<path fill="#4A45BD" d="M279.238,21.66c-1.439,0-2.853-0.275-4.238-0.825c-1.387-0.55-2.646-1.395-3.78-2.535l2.457-3.27
				c0.864,0.78,1.75,1.4,2.659,1.86c0.909,0.46,1.903,0.69,2.983,0.69c0.864,0,1.535-0.175,2.012-0.525
				c0.477-0.35,0.716-0.834,0.716-1.455v-0.06c0-0.3-0.05-0.565-0.149-0.795c-0.1-0.229-0.289-0.445-0.568-0.645
				s-0.668-0.4-1.164-0.6c-0.496-0.2-1.142-0.41-1.936-0.63c-0.957-0.259-1.823-0.55-2.599-0.87
				c-0.776-0.32-1.436-0.715-1.977-1.185c-0.542-0.47-0.961-1.055-1.259-1.755s-0.447-1.57-0.447-2.61V6.39
				c0-0.96,0.161-1.825,0.483-2.595c0.321-0.77,0.773-1.435,1.354-1.995c0.581-0.56,1.275-0.99,2.082-1.29
				c0.807-0.3,1.696-0.45,2.669-0.45c1.386,0,2.659,0.23,3.82,0.69s2.228,1.12,3.199,1.98l-2.16,3.48
				c-0.846-0.64-1.674-1.145-2.483-1.515c-0.811-0.37-1.62-0.555-2.431-0.555c-0.81,0-1.417,0.175-1.822,0.525
				s-0.607,0.785-0.607,1.305v0.06c0,0.34,0.059,0.635,0.176,0.885s0.329,0.475,0.637,0.675c0.307,0.2,0.726,0.39,1.259,0.57
				c0.532,0.18,1.204,0.39,2.017,0.63c0.956,0.28,1.809,0.595,2.559,0.945c0.748,0.35,1.38,0.77,1.895,1.26
				c0.515,0.491,0.902,1.065,1.164,1.725c0.262,0.66,0.393,1.451,0.393,2.37v0.06c0,1.04-0.17,1.965-0.51,2.775
				s-0.813,1.49-1.421,2.04c-0.608,0.55-1.334,0.97-2.177,1.26C281.199,21.515,280.265,21.66,279.238,21.66z"/>
			<path fill="#4A45BD" d="M289.201,0.36h4.158v8.31h7.668V0.36h4.158v21h-4.158v-8.43h-7.668v8.43h-4.158V0.36z"/>
			<path fill="#4A45BD" d="M309.154,0.36h8.76c2.174,0,3.818,0.62,4.933,1.86c0.862,0.96,1.293,2.15,1.293,3.57v0.06
				c0,0.6-0.067,1.13-0.201,1.59c-0.134,0.46-0.313,0.875-0.536,1.245c-0.224,0.37-0.483,0.695-0.778,0.975
				c-0.296,0.28-0.612,0.521-0.952,0.72c1.093,0.46,1.953,1.085,2.58,1.875c0.627,0.791,0.94,1.885,0.94,3.285v0.06
				c0,0.96-0.166,1.8-0.498,2.52c-0.333,0.72-0.809,1.32-1.429,1.8c-0.621,0.48-1.366,0.84-2.237,1.08
				c-0.872,0.24-1.838,0.36-2.897,0.36h-8.977V0.36z M317.039,8.85c0.918,0,1.646-0.175,2.187-0.525
				c0.54-0.35,0.811-0.915,0.811-1.695V6.57c0-0.7-0.234-1.235-0.702-1.605c-0.469-0.37-1.144-0.555-2.025-0.555h-4.104v4.44
				H317.039z M318.146,17.31c0.918,0,1.638-0.185,2.16-0.555c0.521-0.37,0.783-0.945,0.783-1.725v-0.06
				c0-0.7-0.243-1.255-0.729-1.665c-0.485-0.41-1.269-0.615-2.349-0.615h-4.806v4.62H318.146z"/>
			<path fill="#4A45BD" d="M336.181,21.72c-1.458,0-2.8-0.285-4.023-0.855c-1.224-0.57-2.281-1.339-3.172-2.31
				c-0.892-0.97-1.585-2.11-2.079-3.42c-0.496-1.31-0.743-2.715-0.743-4.215v-0.06c0-1.5,0.252-2.905,0.756-4.215
				s1.202-2.46,2.093-3.45c0.892-0.99,1.953-1.77,3.187-2.34C333.431,0.285,334.776,0,336.234,0s2.799,0.285,4.023,0.855
				c1.224,0.57,2.281,1.34,3.172,2.31c0.892,0.97,1.584,2.11,2.079,3.42c0.495,1.31,0.742,2.715,0.742,4.215v0.06
				c0,1.5-0.252,2.905-0.756,4.215c-0.504,1.311-1.201,2.46-2.092,3.45c-0.892,0.99-1.954,1.77-3.187,2.34
				C338.983,21.435,337.639,21.72,336.181,21.72z M336.234,17.46c0.828,0,1.593-0.17,2.295-0.51c0.702-0.34,1.301-0.81,1.796-1.41
				c0.494-0.6,0.882-1.295,1.161-2.085c0.278-0.79,0.418-1.635,0.418-2.535v-0.06c0-0.9-0.14-1.75-0.418-2.55
				c-0.279-0.8-0.676-1.5-1.188-2.1s-1.12-1.075-1.822-1.425c-0.702-0.35-1.468-0.525-2.295-0.525c-0.847,0-1.616,0.17-2.309,0.51
				c-0.693,0.34-1.287,0.81-1.782,1.41c-0.495,0.6-0.882,1.295-1.161,2.085c-0.279,0.791-0.418,1.635-0.418,2.535v0.06
				c0,0.9,0.139,1.75,0.418,2.55c0.279,0.8,0.675,1.5,1.188,2.1c0.513,0.6,1.115,1.075,1.809,1.425
				C334.618,17.285,335.388,17.46,336.234,17.46z"/>
			<path fill="#4A45BD" d="M353.164,0.21h3.834l8.1,21.15h-4.347l-1.728-4.71h-7.992l-1.729,4.71h-4.238L353.164,0.21z
				 M357.538,12.57l-2.511-6.81l-2.512,6.81H357.538z"/>
			<path fill="#4A45BD" d="M366.906,0.36h8.641c2.394,0,4.229,0.71,5.508,2.13c1.08,1.2,1.62,2.8,1.62,4.8v0.06
				c0,1.7-0.374,3.085-1.121,4.155c-0.747,1.07-1.724,1.855-2.929,2.355l4.616,7.5h-4.859l-4.05-6.72h-0.055h-3.213v6.72h-4.158
				V0.36z M375.276,10.56c1.026,0,1.813-0.27,2.363-0.81c0.549-0.54,0.823-1.26,0.823-2.16V7.53c0-1-0.288-1.75-0.864-2.25
				c-0.576-0.5-1.377-0.75-2.403-0.75h-4.131v6.03H375.276z"/>
			<path fill="#4A45BD" d="M385.319,0.36h7.371c1.476,0,2.831,0.265,4.063,0.795c1.233,0.53,2.295,1.265,3.187,2.205
				c0.891,0.94,1.579,2.045,2.065,3.315c0.486,1.271,0.729,2.645,0.729,4.125v0.06c0,1.48-0.242,2.86-0.729,4.14
				s-1.175,2.39-2.065,3.33c-0.892,0.94-1.953,1.68-3.187,2.22c-1.232,0.54-2.588,0.81-4.063,0.81h-7.371V0.36z M392.69,17.19
				c0.846,0,1.62-0.15,2.322-0.45c0.702-0.3,1.3-0.729,1.796-1.29c0.494-0.56,0.882-1.22,1.161-1.98
				c0.278-0.76,0.418-1.609,0.418-2.55v-0.06c0-0.92-0.14-1.77-0.418-2.55c-0.279-0.78-0.667-1.45-1.161-2.01
				c-0.496-0.56-1.094-0.995-1.796-1.305c-0.702-0.31-1.477-0.465-2.322-0.465h-3.213v12.66H392.69z"/>
			<path fill="#4A45BD" d="M50.602,30.462h3.834l8.856,12.931V30.462h4.104v21h-3.536l-9.153-13.35v13.35h-4.104V30.462z"/>
			<path fill="#4A45BD" d="M71.932,30.462h14.229v4.11H76.036v4.26h8.91v4.109h-8.91v4.41h10.26v4.11H71.932V30.462z"/>
			<path fill="#4A45BD" d="M88.563,30.462h4.455l3.915,14.22l4.239-14.28h3.564l4.238,14.28l3.915-14.22h4.348l-6.453,21.149h-3.618
				l-4.266-13.739l-4.267,13.739h-3.618L88.563,30.462z"/>
			<path fill="#4A45BD" d="M126.525,51.762c-1.439,0-2.853-0.275-4.238-0.824c-1.387-0.551-2.646-1.396-3.78-2.535l2.457-3.271
				c0.864,0.78,1.75,1.4,2.659,1.86s1.903,0.689,2.983,0.689c0.864,0,1.535-0.175,2.012-0.525c0.477-0.35,0.716-0.834,0.716-1.454
				v-0.06c0-0.301-0.05-0.565-0.149-0.796c-0.1-0.229-0.289-0.444-0.568-0.645s-0.668-0.399-1.164-0.601
				c-0.496-0.199-1.142-0.409-1.936-0.63c-0.957-0.259-1.823-0.55-2.599-0.87c-0.776-0.319-1.436-0.715-1.977-1.185
				c-0.542-0.47-0.961-1.055-1.259-1.755s-0.447-1.57-0.447-2.61v-0.06c0-0.96,0.161-1.825,0.483-2.595
				c0.321-0.77,0.773-1.435,1.354-1.995c0.581-0.56,1.275-0.99,2.082-1.29c0.807-0.3,1.696-0.45,2.669-0.45
				c1.386,0,2.659,0.23,3.82,0.69s2.228,1.12,3.199,1.98l-2.16,3.48c-0.846-0.64-1.674-1.145-2.483-1.515
				c-0.811-0.37-1.62-0.555-2.431-0.555c-0.81,0-1.417,0.175-1.822,0.525s-0.607,0.785-0.607,1.305v0.06
				c0,0.34,0.059,0.635,0.176,0.885s0.329,0.475,0.637,0.675c0.307,0.2,0.726,0.39,1.259,0.57c0.532,0.18,1.204,0.39,2.017,0.63
				c0.956,0.28,1.809,0.595,2.559,0.945c0.748,0.351,1.38,0.771,1.895,1.26c0.515,0.491,0.902,1.065,1.164,1.726
				s0.393,1.45,0.393,2.369v0.061c0,1.04-0.17,1.965-0.51,2.775c-0.34,0.81-0.813,1.49-1.421,2.039
				c-0.608,0.551-1.334,0.971-2.177,1.261C128.486,51.617,127.552,51.762,126.525,51.762z"/>
			<path fill="#4A45BD" d="M138.136,30.462h4.158v16.83h9.423v4.17h-13.581V30.462z"/>
			<path fill="#4A45BD" d="M154.849,30.462h14.229v4.11h-10.125v4.26h8.91v4.109h-8.91v4.41h10.26v4.11h-14.364V30.462z"/>
			<path fill="#4A45BD" d="M177.34,34.722h-5.751v-4.26h15.66v4.26h-5.751v16.74h-4.158V34.722z"/>
			<path fill="#4A45BD" d="M194.836,34.722h-5.751v-4.26h15.66v4.26h-5.751v16.74h-4.158V34.722z"/>
			<path fill="#4A45BD" d="M207.931,30.462h14.229v4.11h-10.125v4.26h8.91v4.109h-8.91v4.41h10.26v4.11h-14.364V30.462z"/>
			<path fill="#4A45BD" d="M226.021,30.462h8.641c2.394,0,4.229,0.71,5.508,2.13c1.08,1.2,1.62,2.8,1.62,4.8v0.06
				c0,1.7-0.374,3.085-1.121,4.155s-1.724,1.855-2.929,2.354l4.616,7.5h-4.859l-4.05-6.72h-0.055h-3.213v6.72h-4.158V30.462z
				 M234.391,40.662c1.026,0,1.813-0.27,2.363-0.811c0.549-0.539,0.823-1.26,0.823-2.16v-0.06c0-1-0.288-1.75-0.864-2.25
				c-0.576-0.5-1.377-0.75-2.403-0.75h-4.131v6.03H234.391z"/>
		</g>
	</g>
</g>
</svg>
