<?xml version="1.0" encoding="utf-8"?>
<!-- Generator: Adobe Illustrator 16.0.0, SVG Export Plug-In . SVG Version: 6.00 Build 0)  -->
<!DOCTYPE svg PUBLIC "-//W3C//DTD SVG 1.1//EN" "http://www.w3.org/Graphics/SVG/1.1/DTD/svg11.dtd">
<svg version="1.1" id="Layer_1" xmlns="http://www.w3.org/2000/svg" xmlns:xlink="http://www.w3.org/1999/xlink" x="0px" y="0px"
	 width="875.043px" height="105.189px" viewBox="0 0 875.043 105.189" enable-background="new 0 0 875.043 105.189"
	 xml:space="preserve">
<g id="Plada">
</g>
<g id="Plada_1_">
</g>
<g id="PLADA">
</g>
<g>
	<path fill="#FFFFFF" d="M1621.535-878.23v19.428h-11.807v-67.949h42.43c3.782,0,6.943,0.38,9.479,1.147
		c2.543,0.763,4.589,2.025,6.139,3.783c1.557,1.763,2.656,4.036,3.305,6.829c0.651,2.785,0.975,6.174,0.975,10.158v5.878
		c0,4.051-0.312,7.408-0.935,10.065c-0.624,2.652-1.697,4.782-3.225,6.373c-1.531,1.594-3.565,2.705-6.103,3.341
		c-2.537,0.631-5.748,0.946-9.636,0.946H1621.535z M1660.24-904.235c0-3.652-0.612-6.142-1.823-7.472
		c-1.222-1.327-3.41-1.99-6.571-1.99h-30.311v23.208h30.468c3.109,0,5.255-0.612,6.446-1.839c1.192-1.23,1.791-3.636,1.791-7.225
		V-904.235z"/>
	<path fill="#FFFFFF" d="M1702.517-858.803c-3.89,0-7.128-0.416-9.718-1.246c-2.591-0.832-4.663-2.158-6.216-3.984
		c-1.554-1.83-2.653-4.22-3.305-7.173c-0.647-2.957-0.973-6.598-0.973-10.912v-44.634h11.738v44.034c0,1.993,0.14,3.672,0.424,5.035
		c0.285,1.358,0.795,2.488,1.516,3.385c0.729,0.898,1.696,1.546,2.915,1.945c1.22,0.399,2.764,0.596,4.624,0.596h31.475v12.954
		H1702.517z"/>
	<path fill="#FFFFFF" d="M1799.655-874.446h-36.678l-7.541,15.644h-13.596l30.771-62.771c0.937-1.922,2.047-3.521,3.338-4.779
		c1.3-1.263,3.16-1.894,5.598-1.894c2.384,0,4.218,0.631,5.519,1.894c1.291,1.259,2.41,2.857,3.345,4.779l30.613,62.771h-13.678
		L1799.655-874.446z M1768.493-886.103h25.646l-12.822-26.804L1768.493-886.103z"/>
	<path fill="#FFFFFF" d="M1829.336-858.803v-67.949h41.968c3.933,0,7.21,0.416,9.827,1.246c2.615,0.832,4.704,2.159,6.26,3.984
		c1.549,1.826,2.655,4.235,3.297,7.225c0.651,2.989,0.976,6.608,0.976,10.856v21.322c0,4.314-0.324,7.955-0.976,10.912
		c-0.642,2.953-1.748,5.343-3.297,7.173c-1.556,1.826-3.645,3.152-6.26,3.984c-2.617,0.83-5.895,1.246-9.827,1.246H1829.336z
		 M1879.853-902.741c0-2.057-0.146-3.8-0.431-5.23c-0.284-1.426-0.775-2.554-1.477-3.388c-0.696-0.832-1.617-1.427-2.755-1.795
		c-1.14-0.364-2.592-0.543-4.353-0.543h-29.688v41.94h29.688c1.604,0,2.974-0.164,4.12-0.496c1.139-0.332,2.067-0.915,2.795-1.746
		c0.722-0.827,1.259-1.938,1.591-3.336c0.335-1.399,0.509-3.156,0.509-5.279V-902.741z"/>
	<path fill="#FFFFFF" d="M1954.375-874.446h-36.683l-7.536,15.644h-13.598l30.771-62.771c0.936-1.922,2.049-3.521,3.345-4.779
		c1.293-1.263,3.161-1.894,5.599-1.894c2.375,0,4.22,0.631,5.517,1.894c1.293,1.259,2.404,2.857,3.338,4.779l30.62,62.771h-13.678
		L1954.375-874.446z M1923.21-886.103h25.646l-12.821-26.804L1923.21-886.103z"/>
	<path fill="#4D4DDB" d="M1532.409-896.331h34.022v-23.88c0-4.319-0.326-7.959-0.975-10.912c-0.647-2.953-1.75-5.347-3.303-7.173
		c-1.55-1.826-3.62-3.157-6.213-3.984c-2.591-0.83-5.83-1.246-9.718-1.246h-0.601h-13.212V-896.331z"/>
	<polygon fill="#FF7900" points="1523.006,-896.331 1523.006,-943.526 1509.076,-943.526 1503.889,-943.526 1466.433,-943.526 
		1466.433,-911.476 1466.433,-896.331 	"/>
	<path fill="#207589" d="M1497.81-886.933h-31.377v20.091c0,4.318,0.319,7.955,0.969,10.912c0.647,2.953,1.749,5.347,3.306,7.169
		c1.553,1.829,3.623,3.156,6.215,3.988c2.589,0.83,5.83,1.246,9.714,1.246h0.603h10.571V-886.933z"/>
	<polygon fill="#D82121" points="1507.208,-886.933 1507.208,-843.526 1523.784,-843.526 1528.972,-843.526 1566.431,-843.526 
		1566.431,-875.577 1566.431,-886.933 	"/>
</g>
<g>
	<rect x="1241.09" y="-633.089" width="960" height="400"/>
	<g>
		<path fill="#FFFFFF" d="M1624.067-418.182v18.934h-11.507v-66.222h41.351c3.686,0,6.767,0.37,9.237,1.118
			c2.479,0.743,4.473,1.974,5.983,3.688c1.518,1.718,2.588,3.934,3.221,6.655c0.635,2.714,0.95,6.017,0.95,9.899v5.729
			c0,3.948-0.304,7.22-0.911,9.81c-0.607,2.585-1.653,4.661-3.143,6.211c-1.492,1.554-3.475,2.637-5.947,3.256
			c-2.473,0.615-5.602,0.923-9.391,0.923H1624.067z M1661.788-443.525c0-3.56-0.597-5.985-1.776-7.282
			c-1.19-1.293-3.323-1.939-6.404-1.939h-29.54v22.618h29.693c3.03,0,5.121-0.597,6.282-1.792c1.162-1.199,1.745-3.544,1.745-7.041
			V-443.525z"/>
		<path fill="#FFFFFF" d="M1702.99-399.248c-3.791,0-6.947-0.405-9.471-1.215c-2.525-0.811-4.545-2.104-6.058-3.883
			c-1.515-1.783-2.586-4.112-3.221-6.99c-0.631-2.882-0.948-6.43-0.948-10.635v-43.499h11.439v42.915
			c0,1.942,0.137,3.578,0.413,4.906c0.278,1.324,0.775,2.426,1.478,3.299c0.711,0.876,1.653,1.507,2.841,1.896
			c1.188,0.389,2.693,0.58,4.506,0.58h30.675v12.625H1702.99z"/>
		<path fill="#FFFFFF" d="M1797.657-414.494h-35.745l-7.349,15.246h-13.25l29.989-61.175c0.912-1.873,1.994-3.431,3.252-4.657
			c1.268-1.23,3.08-1.846,5.456-1.846c2.323,0,4.11,0.615,5.378,1.846c1.258,1.227,2.349,2.784,3.26,4.657l29.835,61.175h-13.33
			L1797.657-414.494z M1767.288-425.854h24.993l-12.496-26.122L1767.288-425.854z"/>
		<path fill="#FFFFFF" d="M1826.583-399.248v-66.222h40.901c3.832,0,7.026,0.405,9.577,1.215c2.549,0.811,4.584,2.104,6.101,3.883
			c1.509,1.779,2.588,4.128,3.213,7.041c0.635,2.913,0.95,6.44,0.95,10.58v20.78c0,4.205-0.315,7.753-0.95,10.635
			c-0.625,2.878-1.704,5.207-3.213,6.99c-1.517,1.779-3.552,3.072-6.101,3.883c-2.551,0.81-5.745,1.215-9.577,1.215H1826.583z
			 M1875.816-442.069c0-2.005-0.142-3.703-0.42-5.098c-0.276-1.39-0.756-2.488-1.439-3.302c-0.678-0.811-1.575-1.391-2.685-1.749
			c-1.11-0.354-2.525-0.529-4.241-0.529h-28.933v40.874h28.933c1.563,0,2.897-0.16,4.015-0.483c1.11-0.323,2.016-0.892,2.725-1.701
			c0.703-0.807,1.227-1.889,1.55-3.252c0.327-1.363,0.496-3.076,0.496-5.145V-442.069z"/>
		<path fill="#FFFFFF" d="M1948.442-414.494h-35.749l-7.345,15.246h-13.252l29.989-61.175c0.911-1.873,1.996-3.431,3.26-4.657
			c1.26-1.23,3.08-1.846,5.456-1.846c2.314,0,4.112,0.615,5.376,1.846c1.26,1.227,2.344,2.784,3.253,4.657l29.842,61.175h-13.33
			L1948.442-414.494z M1918.071-425.854h24.993l-12.495-26.122L1918.071-425.854z"/>
		<path fill="#4D4DDB" d="M1537.207-435.822h33.157v-23.272c0-4.21-0.317-7.757-0.95-10.635c-0.631-2.878-1.706-5.211-3.219-6.99
			c-1.511-1.78-3.528-3.077-6.056-3.883c-2.525-0.81-5.682-1.215-9.471-1.215h-0.586h-12.876V-435.822z"/>
		<polygon fill="#FF7900" points="1528.043,-435.822 1528.043,-481.817 1514.467,-481.817 1509.413,-481.817 1472.909,-481.817 
			1472.909,-450.582 1472.909,-435.822 		"/>
		<path fill="#207589" d="M1503.488-426.663h-30.579v19.58c0,4.209,0.312,7.753,0.944,10.635c0.631,2.878,1.704,5.211,3.222,6.986
			c1.514,1.783,3.531,3.076,6.057,3.887c2.523,0.81,5.682,1.215,9.467,1.215h0.588h10.302V-426.663z"/>
		<polygon fill="#D82121" points="1512.647,-426.663 1512.647,-384.36 1528.801,-384.36 1533.858,-384.36 1570.364,-384.36 
			1570.364,-415.596 1570.364,-426.663 		"/>
	</g>
	<rect x="1241.09" y="-233.089" fill="#FFFFFF" width="960" height="400"/>
	<path fill="#2F2F2F" d="M1624.067-18.182V0.752h-11.507V-65.47h41.351c3.686,0,6.767,0.37,9.237,1.118
		c2.479,0.744,4.473,1.975,5.983,3.688c1.518,1.718,2.588,3.934,3.221,6.655c0.635,2.715,0.95,6.017,0.95,9.899v5.729
		c0,3.948-0.304,7.22-0.911,9.81c-0.607,2.586-1.653,4.661-3.143,6.211c-1.492,1.554-3.475,2.637-5.947,3.256
		c-2.473,0.615-5.602,0.923-9.391,0.923H1624.067z M1661.788-43.525c0-3.56-0.597-5.985-1.776-7.282
		c-1.19-1.293-3.323-1.939-6.404-1.939h-29.54v22.618h29.693c3.03,0,5.121-0.596,6.282-1.792c1.162-1.199,1.745-3.543,1.745-7.04
		V-43.525z"/>
	<path fill="#2F2F2F" d="M1702.99,0.752c-3.791,0-6.947-0.404-9.471-1.215c-2.525-0.81-4.545-2.103-6.058-3.883
		c-1.515-1.783-2.586-4.112-3.221-6.99c-0.631-2.881-0.948-6.429-0.948-10.635V-65.47h11.439v42.915
		c0,1.943,0.137,3.579,0.413,4.906c0.278,1.324,0.775,2.427,1.478,3.299c0.711,0.876,1.653,1.507,2.841,1.896
		c1.188,0.39,2.693,0.58,4.506,0.58h30.675V0.752H1702.99z"/>
	<path fill="#2F2F2F" d="M1797.657-14.494h-35.745l-7.349,15.246h-13.25l29.989-61.175c0.912-1.873,1.994-3.431,3.252-4.657
		c1.268-1.23,3.08-1.846,5.456-1.846c2.323,0,4.11,0.615,5.378,1.846c1.258,1.227,2.349,2.784,3.26,4.657l29.835,61.175h-13.33
		L1797.657-14.494z M1767.288-25.854h24.993l-12.496-26.122L1767.288-25.854z"/>
	<path fill="#2F2F2F" d="M1826.583,0.752V-65.47h40.901c3.832,0,7.026,0.405,9.577,1.216c2.549,0.81,4.584,2.103,6.101,3.882
		c1.509,1.78,2.588,4.128,3.213,7.041c0.635,2.913,0.95,6.441,0.95,10.581v20.779c0,4.206-0.315,7.754-0.95,10.635
		c-0.625,2.878-1.704,5.207-3.213,6.99c-1.517,1.78-3.552,3.073-6.101,3.883c-2.551,0.811-5.745,1.215-9.577,1.215H1826.583z
		 M1875.816-42.069c0-2.005-0.142-3.703-0.42-5.097c-0.276-1.391-0.756-2.489-1.439-3.303c-0.678-0.81-1.575-1.391-2.685-1.748
		c-1.11-0.354-2.525-0.53-4.241-0.53h-28.933v40.874h28.933c1.563,0,2.897-0.159,4.015-0.482c1.11-0.323,2.016-0.893,2.725-1.702
		c0.703-0.806,1.227-1.889,1.55-3.252c0.327-1.362,0.496-3.076,0.496-5.144V-42.069z"/>
	<path fill="#2F2F2F" d="M1948.442-14.494h-35.749l-7.345,15.246h-13.252l29.989-61.175c0.911-1.873,1.996-3.431,3.26-4.657
		c1.26-1.23,3.08-1.846,5.456-1.846c2.314,0,4.112,0.615,5.376,1.846c1.26,1.227,2.344,2.784,3.253,4.657l29.842,61.175h-13.33
		L1948.442-14.494z M1918.071-25.854h24.993l-12.495-26.122L1918.071-25.854z"/>
	<path fill="#4D4DDB" d="M1537.207-35.822h33.157v-23.272c0-4.209-0.317-7.757-0.95-10.635c-0.631-2.878-1.706-5.211-3.219-6.99
		c-1.511-1.779-3.528-3.076-6.056-3.883c-2.525-0.81-5.682-1.215-9.471-1.215h-0.586h-12.876V-35.822z"/>
	<polygon fill="#FF7900" points="1528.043,-35.822 1528.043,-81.817 1514.467,-81.817 1509.413,-81.817 1472.909,-81.817 
		1472.909,-50.582 1472.909,-35.822 	"/>
	<path fill="#207589" d="M1503.488-26.663h-30.579v19.58c0,4.21,0.312,7.753,0.944,10.635c0.631,2.878,1.704,5.211,3.222,6.986
		c1.514,1.784,3.531,3.077,6.057,3.887c2.523,0.81,5.682,1.215,9.467,1.215h0.588h10.302V-26.663z"/>
	<polygon fill="#D82121" points="1512.647,-26.663 1512.647,15.64 1528.801,15.64 1533.858,15.64 1570.364,15.64 1570.364,-15.596 
		1570.364,-26.663 	"/>
</g>
<g>
	<path fill="#2F2F2F" d="M1621.535-778.23v19.428h-11.807v-67.949h42.43c3.782,0,6.943,0.38,9.479,1.147
		c2.543,0.764,4.589,2.025,6.139,3.783c1.557,1.763,2.656,4.036,3.305,6.829c0.651,2.786,0.975,6.174,0.975,10.157v5.879
		c0,4.051-0.312,7.408-0.935,10.065c-0.624,2.653-1.697,4.782-3.225,6.373c-1.531,1.594-3.565,2.705-6.103,3.341
		c-2.537,0.631-5.748,0.946-9.636,0.946H1621.535z M1660.24-804.235c0-3.652-0.612-6.142-1.823-7.473
		c-1.222-1.326-3.41-1.989-6.571-1.989h-30.311v23.208h30.468c3.109,0,5.255-0.611,6.446-1.839c1.192-1.23,1.791-3.636,1.791-7.224
		V-804.235z"/>
	<path fill="#2F2F2F" d="M1702.517-758.803c-3.89,0-7.128-0.415-9.718-1.246c-2.591-0.831-4.663-2.157-6.216-3.984
		c-1.554-1.83-2.653-4.22-3.305-7.173c-0.647-2.956-0.973-6.597-0.973-10.912v-44.634h11.738v44.034c0,1.994,0.14,3.673,0.424,5.035
		c0.285,1.358,0.795,2.489,1.516,3.385c0.729,0.898,1.696,1.546,2.915,1.945c1.22,0.4,2.764,0.596,4.624,0.596h31.475v12.954
		H1702.517z"/>
	<path fill="#2F2F2F" d="M1799.655-774.446h-36.678l-7.541,15.644h-13.596l30.771-62.771c0.937-1.922,2.047-3.521,3.338-4.779
		c1.3-1.263,3.16-1.894,5.598-1.894c2.384,0,4.218,0.631,5.519,1.894c1.291,1.259,2.41,2.857,3.345,4.779l30.613,62.771h-13.678
		L1799.655-774.446z M1768.493-786.103h25.646l-12.822-26.804L1768.493-786.103z"/>
	<path fill="#2F2F2F" d="M1829.336-758.803v-67.949h41.968c3.933,0,7.21,0.416,9.827,1.247c2.615,0.831,4.704,2.157,6.26,3.983
		c1.549,1.827,2.655,4.235,3.297,7.225c0.651,2.989,0.976,6.609,0.976,10.857v21.321c0,4.315-0.324,7.956-0.976,10.912
		c-0.642,2.953-1.748,5.343-3.297,7.173c-1.556,1.827-3.645,3.153-6.26,3.984c-2.617,0.831-5.895,1.246-9.827,1.246H1829.336z
		 M1879.853-802.741c0-2.058-0.146-3.8-0.431-5.229c-0.284-1.427-0.775-2.555-1.477-3.39c-0.696-0.83-1.617-1.427-2.755-1.793
		c-1.14-0.364-2.592-0.544-4.353-0.544h-29.688v41.94h29.688c1.604,0,2.974-0.163,4.12-0.495c1.139-0.332,2.067-0.916,2.795-1.747
		c0.722-0.826,1.259-1.938,1.591-3.336c0.335-1.398,0.509-3.157,0.509-5.278V-802.741z"/>
	<path fill="#2F2F2F" d="M1954.375-774.446h-36.683l-7.536,15.644h-13.598l30.771-62.771c0.936-1.922,2.049-3.521,3.345-4.779
		c1.293-1.263,3.161-1.894,5.599-1.894c2.375,0,4.22,0.631,5.517,1.894c1.293,1.259,2.404,2.857,3.338,4.779l30.62,62.771h-13.678
		L1954.375-774.446z M1923.21-786.103h25.646l-12.821-26.804L1923.21-786.103z"/>
	<path fill="#4D4DDB" d="M1532.409-796.331h34.022v-23.88c0-4.318-0.326-7.959-0.975-10.912c-0.647-2.953-1.75-5.347-3.303-7.173
		c-1.55-1.825-3.62-3.156-6.213-3.984c-2.591-0.83-5.83-1.246-9.718-1.246h-0.601h-13.212V-796.331z"/>
	<polygon fill="#FF7900" points="1523.006,-796.331 1523.006,-843.526 1509.076,-843.526 1503.889,-843.526 1466.433,-843.526 
		1466.433,-811.476 1466.433,-796.331 	"/>
	<path fill="#207589" d="M1497.81-786.933h-31.377v20.091c0,4.319,0.319,7.955,0.969,10.912c0.647,2.953,1.749,5.347,3.306,7.169
		c1.553,1.83,3.623,3.157,6.215,3.988c2.589,0.83,5.83,1.246,9.714,1.246h0.603h10.571V-786.933z"/>
	<polygon fill="#D82121" points="1507.208,-786.933 1507.208,-743.526 1523.784,-743.526 1528.972,-743.526 1566.431,-743.526 
		1566.431,-775.577 1566.431,-786.933 	"/>
</g>
<g>
	<g>
		<path fill="#4D4DDB" d="M68.976,49.79h34.022V25.911c0-4.318-0.326-7.959-0.975-10.912c-0.647-2.953-1.75-5.348-3.303-7.174
			c-1.55-1.824-3.62-3.156-6.213-3.984c-2.591-0.83-5.83-1.246-9.718-1.246h-0.601H68.976V49.79z"/>
		<polygon fill="#FF7900" points="59.573,49.79 59.573,2.595 45.643,2.595 40.456,2.595 3,2.595 3,34.646 3,49.79 		"/>
		<path fill="#207589" d="M34.377,59.188H3V79.28c0,4.318,0.319,7.955,0.969,10.912c0.647,2.953,1.749,5.346,3.306,7.168
			c1.553,1.83,3.623,3.158,6.215,3.988c2.589,0.83,5.83,1.246,9.714,1.246h0.603h10.571V59.188z"/>
		<polygon fill="#D82121" points="43.775,59.188 43.775,102.595 60.351,102.595 65.539,102.595 102.998,102.595 102.998,70.544 
			102.998,59.188 		"/>
	</g>
</g>
<g>
	<g>
		<path fill="#5851DF" d="M127.54,27.003h11.242v55.825H127.54V27.003z"/>
		<path fill="#5851DF" d="M146.865,44.02h10.318l0.231,2.695c1.334-0.872,2.746-1.565,4.235-2.079c3.08-1.026,5.877-1.54,8.393-1.54
			c2.515,0,4.582,0.321,6.198,0.963c1.617,0.643,2.913,1.54,3.889,2.694c0.975,1.155,1.656,2.58,2.041,4.274
			c0.385,1.693,0.578,3.568,0.578,5.62v26.181h-11.011V59.152c0-0.97-0.039-1.901-0.115-2.796c-0.077-0.894-0.296-1.673-0.655-2.337
			c-0.359-0.665-0.898-1.2-1.617-1.609c-0.72-0.409-1.694-0.613-2.926-0.613c-1.797,0-3.337,0.229-4.62,0.689
			c-1.232,0.512-2.285,1.048-3.157,1.609v28.732h-11.011V54.415L146.865,44.02z"/>
		<path fill="#5851DF" d="M192.911,36.782l11.011-2.002v9.239h13.321v8.085h-13.321v15.862c0,0.976,0.039,1.899,0.115,2.772
			c0.077,0.873,0.282,1.644,0.616,2.31c0.333,0.668,0.847,1.207,1.54,1.617c0.693,0.411,1.629,0.616,2.811,0.616
			c1.59,0,3.028-0.166,4.312-0.501c1.282-0.333,2.514-0.809,3.696-1.425l1.694,7.238c-3.953,2.105-8.368,3.157-13.244,3.157
			c-2.568,0-4.659-0.321-6.276-0.963c-1.617-0.641-2.887-1.54-3.812-2.694c-0.924-1.155-1.553-2.566-1.886-4.235
			c-0.334-1.668-0.5-3.528-0.5-5.582V52.104h-6.622v-7.16l6.545-0.771V36.782z"/>
		<path fill="#5851DF" d="M232.874,66.042c0,2.618,0.513,4.801,1.54,6.545c1.386,2.26,4.158,3.388,8.316,3.388
			c1.54,0,2.899-0.102,4.081-0.308c1.18-0.205,2.258-0.462,3.234-0.771c0.975-0.308,1.887-0.654,2.733-1.039
			c0.847-0.385,1.681-0.757,2.503-1.116l2.079,6.853c-0.77,0.462-1.759,0.95-2.964,1.463c-1.207,0.514-2.541,0.963-4.004,1.348
			s-3.003,0.706-4.62,0.963c-1.617,0.256-3.222,0.385-4.813,0.385c-7.136,0-12.166-1.72-15.092-5.159
			c-2.875-3.49-4.312-8.624-4.312-15.399c0-13.398,6.416-20.098,19.25-20.098c3.542,0,6.429,0.476,8.663,1.425
			c2.233,0.95,3.978,2.271,5.236,3.966c1.257,1.693,2.118,3.695,2.58,6.006c0.462,2.31,0.693,4.851,0.693,7.623v3.927H232.874z
			 M246.58,58.881c0-2.771-0.45-4.915-1.348-6.43c-0.898-1.514-2.425-2.271-4.582-2.271c-2.464,0-4.312,0.604-5.544,1.81
			c-1.232,1.207-1.925,2.965-2.079,5.274c-0.051,0.258-0.077,0.514-0.077,0.771s0,0.539,0,0.847H246.58z"/>
		<path fill="#5851DF" d="M264.213,25.386l10.934-1.463V70.2c0,1.182,0.077,2.117,0.231,2.811c0.154,0.692,0.397,1.22,0.731,1.578
			c0.333,0.359,0.782,0.591,1.347,0.693c0.564,0.104,1.283,0.153,2.156,0.153v7.623c-0.154,0.052-0.462,0.077-0.924,0.077
			c-0.308,0.103-0.643,0.154-1.001,0.154h-0.924c-2.362,0-4.351-0.281-5.967-0.847c-1.617-0.564-2.914-1.398-3.889-2.503
			c-0.976-1.104-1.669-2.451-2.079-4.043c-0.411-1.59-0.616-3.413-0.616-5.467V25.386z"/>
		<path fill="#5851DF" d="M283.924,25.386l10.934-1.463V70.2c0,1.182,0.077,2.117,0.231,2.811c0.154,0.692,0.397,1.22,0.731,1.578
			c0.333,0.359,0.782,0.591,1.347,0.693c0.564,0.104,1.283,0.153,2.156,0.153v7.623c-0.154,0.052-0.462,0.077-0.924,0.077
			c-0.308,0.103-0.643,0.154-1.001,0.154h-0.924c-2.362,0-4.351-0.281-5.967-0.847c-1.617-0.564-2.914-1.398-3.889-2.503
			c-0.976-1.104-1.669-2.451-2.079-4.043c-0.411-1.59-0.616-3.413-0.616-5.467V25.386z"/>
		<path fill="#5851DF" d="M300.787,44.02h12.166l8.008,24.948h0.847l7.7-24.948h11.165L325.35,84.676
			c-0.924,2.412-1.887,4.62-2.888,6.622s-2.208,3.708-3.619,5.12c-1.413,1.412-3.093,2.515-5.043,3.312
			c-1.952,0.795-4.339,1.193-7.161,1.193c-0.924,0-1.887-0.038-2.888-0.115s-1.938-0.27-2.811-0.578l1.386-7.392
			c1.128,0.256,2.207,0.385,3.234,0.385c1.898,0,3.362-0.296,4.389-0.886c1.026-0.59,1.771-1.271,2.233-2.04
			c0.718-0.821,1.411-2.079,2.079-3.773c0.667-1.693,1.309-3.361,1.925-5.005L300.787,44.02z"/>
		<path fill="#5851DF" d="M348.757,36.782l11.011-2.002v9.239h13.321v8.085h-13.321v15.862c0,0.976,0.039,1.899,0.115,2.772
			c0.077,0.873,0.282,1.644,0.616,2.31c0.333,0.668,0.847,1.207,1.54,1.617c0.693,0.411,1.629,0.616,2.811,0.616
			c1.59,0,3.028-0.166,4.312-0.501c1.282-0.333,2.514-0.809,3.696-1.425l1.694,7.238c-3.953,2.105-8.368,3.157-13.244,3.157
			c-2.568,0-4.659-0.321-6.276-0.963c-1.617-0.641-2.887-1.54-3.812-2.694c-0.924-1.155-1.553-2.566-1.886-4.235
			c-0.334-1.668-0.5-3.528-0.5-5.582V52.104h-6.622v-7.16l6.545-0.771V36.782z"/>
		<path fill="#5851DF" d="M380.481,27.003h11.165v8.854h-11.165V27.003z M380.558,44.02h11.011v38.809h-11.011V44.02z"/>
		<path fill="#5851DF" d="M426.681,54.184c-1.078-1.282-2.246-2.181-3.503-2.694c-1.258-0.513-2.683-0.771-4.273-0.771
			c-3.388,0-5.865,1.015-7.431,3.042c-1.566,2.028-2.348,5.455-2.348,10.279c0,3.85,0.68,6.827,2.041,8.932
			c1.359,2.105,3.812,3.157,7.354,3.157c2.31,0,4.312-0.256,6.006-0.77c1.694-0.513,3.438-1.232,5.236-2.156l2.002,7.007
			c-1.386,0.976-3.324,1.81-5.813,2.502c-2.49,0.693-5.352,1.04-8.585,1.04c-3.542,0-6.545-0.424-9.009-1.271
			c-2.464-0.847-4.466-2.104-6.006-3.773c-1.54-1.667-2.656-3.721-3.349-6.159c-0.693-2.438-1.04-5.275-1.04-8.509
			c0-7.135,1.771-12.409,5.313-15.823s8.778-5.121,15.708-5.121c2.926,0,5.633,0.476,8.124,1.425
			c2.489,0.95,4.401,2.221,5.736,3.812L426.681,54.184z"/>
		<path fill="#5851DF" d="M445.93,66.196c-1.335-0.411-2.592-0.911-3.773-1.502c-1.181-0.59-2.208-1.309-3.08-2.156
			c-0.874-0.847-1.554-1.873-2.041-3.08c-0.489-1.205-0.732-2.63-0.732-4.273c0-4.055,1.502-7.084,4.505-9.086
			s7.123-3.003,12.358-3.003c3.285,0,6.146,0.258,8.585,0.771c2.438,0.514,4.735,1.206,6.892,2.079l-3.234,7.776
			c-1.644-0.924-3.517-1.642-5.621-2.156c-2.105-0.512-4.312-0.77-6.622-0.77c-2.054,0-3.646,0.27-4.774,0.809
			c-1.13,0.539-1.694,1.348-1.694,2.426c0,0.924,0.424,1.682,1.271,2.271c0.847,0.591,2.168,1.143,3.966,1.655
			c0.358,0.154,0.847,0.334,1.463,0.539s1.271,0.411,1.963,0.616s1.36,0.397,2.002,0.577c0.642,0.181,1.194,0.321,1.656,0.424
			c1.334,0.411,2.591,0.885,3.773,1.424c1.18,0.539,2.207,1.232,3.08,2.079c0.872,0.848,1.565,1.9,2.079,3.157
			c0.512,1.259,0.77,2.76,0.77,4.505c0,4.157-1.501,7.276-4.504,9.355c-3.003,2.078-7.149,3.118-12.436,3.118
			c-3.542,0-6.545-0.283-9.009-0.847c-2.464-0.564-4.774-1.258-6.93-2.079l3.311-7.777c1.591,0.873,3.427,1.566,5.505,2.079
			c2.079,0.514,4.428,0.77,7.046,0.77c2.002,0,3.567-0.27,4.697-0.808c1.128-0.539,1.694-1.425,1.694-2.657
			c0-1.693-1.72-3.08-5.159-4.158L445.93,66.196z"/>
		<path fill="#5851DF" d="M496.134,27.003h18.095c4.62,0,8.727,0.514,12.32,1.54c3.592,1.027,6.634,2.656,9.124,4.89
			c2.489,2.232,4.376,5.134,5.66,8.701c1.283,3.568,1.925,7.893,1.925,12.974c0,5.236-0.797,9.625-2.387,13.167
			c-1.592,3.542-3.786,6.392-6.583,8.548c-2.798,2.155-6.096,3.695-9.895,4.619c-3.799,0.925-7.906,1.387-12.32,1.387h-15.939
			V27.003z M507.376,35.704v38.423h4.235c3.08,0,5.852-0.321,8.316-0.966c2.464-0.644,4.543-1.739,6.237-3.286
			c1.694-1.546,3.003-3.595,3.927-6.146c0.924-2.551,1.386-5.76,1.386-9.626c0-6.338-1.553-10.989-4.659-13.954
			c-3.106-2.963-7.38-4.445-12.82-4.445H507.376z"/>
		<path fill="#5851DF" d="M549.957,47.1c2.052-1.128,4.582-2.079,7.584-2.849c3.003-0.771,6.044-1.155,9.125-1.155
			c3.028,0,5.556,0.27,7.584,0.809c2.027,0.539,3.657,1.438,4.89,2.695c1.232,1.258,2.104,2.939,2.618,5.043
			c0.513,2.105,0.77,4.697,0.77,7.777v12.012c0,1.54,0.308,2.593,0.924,3.157c0.616,0.565,1.513,0.847,2.695,0.847v7.393
			c-0.976,0.205-2.31,0.308-4.004,0.308c-2.208,0-4.031-0.308-5.467-0.924c-1.438-0.616-2.593-1.591-3.465-2.926
			c-1.438,1.335-3.234,2.413-5.39,3.233c-2.156,0.821-4.209,1.232-6.16,1.232c-2.824,0-5.109-0.347-6.853-1.04
			c-1.746-0.692-3.093-1.604-4.042-2.733c-0.951-1.128-1.579-2.425-1.887-3.888c-0.308-1.464-0.462-2.99-0.462-4.582
			c0-2.566,0.41-4.671,1.232-6.313c0.82-1.643,1.989-2.927,3.503-3.851c1.514-0.924,3.35-1.565,5.505-1.925
			c2.156-0.358,4.543-0.539,7.161-0.539c0.873,0,1.822,0.014,2.849,0.038c1.026,0.027,1.95,0.065,2.772,0.116v-1.771
			c0-2.156-0.591-3.772-1.771-4.851c-1.182-1.078-3.106-1.617-5.775-1.617c-2.208,0-4.312,0.27-6.314,0.809
			s-3.825,1.271-5.467,2.194L549.957,47.1z M571.44,66.272c-0.976-0.102-1.925-0.166-2.849-0.192
			c-0.924-0.025-1.823-0.038-2.695-0.038c-2.31,0-3.915,0.437-4.813,1.309c-0.899,0.874-1.348,2.105-1.348,3.696
			c0,1.694,0.32,2.991,0.962,3.889c0.642,0.898,1.887,1.348,3.735,1.348c0.924,0,2.065-0.192,3.426-0.578
			c1.359-0.385,2.553-1.064,3.581-2.04V66.272z"/>
		<path fill="#5851DF" d="M600.083,66.196c-1.335-0.411-2.592-0.911-3.773-1.502c-1.181-0.59-2.208-1.309-3.08-2.156
			c-0.874-0.847-1.554-1.873-2.041-3.08c-0.489-1.205-0.732-2.63-0.732-4.273c0-4.055,1.502-7.084,4.505-9.086
			s7.123-3.003,12.358-3.003c3.285,0,6.146,0.258,8.585,0.771c2.438,0.514,4.735,1.206,6.892,2.079l-3.234,7.776
			c-1.644-0.924-3.517-1.642-5.621-2.156c-2.105-0.512-4.312-0.77-6.622-0.77c-2.054,0-3.646,0.27-4.774,0.809
			c-1.13,0.539-1.694,1.348-1.694,2.426c0,0.924,0.424,1.682,1.271,2.271c0.847,0.591,2.168,1.143,3.966,1.655
			c0.358,0.154,0.847,0.334,1.463,0.539s1.271,0.411,1.963,0.616s1.36,0.397,2.002,0.577c0.642,0.181,1.194,0.321,1.656,0.424
			c1.334,0.411,2.591,0.885,3.773,1.424c1.18,0.539,2.207,1.232,3.08,2.079c0.872,0.848,1.565,1.9,2.079,3.157
			c0.513,1.259,0.77,2.76,0.77,4.505c0,4.157-1.501,7.276-4.504,9.355c-3.003,2.078-7.149,3.118-12.436,3.118
			c-3.542,0-6.545-0.283-9.009-0.847c-2.464-0.564-4.774-1.258-6.93-2.079l3.311-7.777c1.591,0.873,3.427,1.566,5.505,2.079
			c2.079,0.514,4.428,0.77,7.046,0.77c2.002,0,3.567-0.27,4.697-0.808c1.128-0.539,1.694-1.425,1.694-2.657
			c0-1.693-1.72-3.08-5.159-4.158L600.083,66.196z"/>
		<path fill="#5851DF" d="M630.268,25.386l11.011-1.463v22.176c0.513-0.256,1.026-0.513,1.54-0.77
			c0.513-0.257,1.052-0.487,1.617-0.693c1.386-0.513,2.797-0.897,4.235-1.155c1.437-0.256,2.797-0.385,4.081-0.385
			c2.515,0,4.582,0.322,6.198,0.965c1.617,0.643,2.913,1.556,3.889,2.738c0.975,1.185,1.656,2.598,2.041,4.244
			c0.385,1.646,0.578,3.497,0.578,5.555v26.23h-11.011V59.094c0-0.972-0.039-1.894-0.115-2.765
			c-0.077-0.871-0.296-1.639-0.655-2.306c-0.359-0.665-0.898-1.203-1.617-1.611c-0.72-0.409-1.694-0.615-2.926-0.615
			c-1.797,0-3.337,0.231-4.62,0.691c-1.335,0.563-2.413,1.127-3.234,1.689v28.65h-11.011V25.386z"/>
		<path fill="#5851DF" d="M674.388,25.386l11.011-1.463v21.483c0.924-0.513,1.719-0.897,2.387-1.155
			c2.207-0.771,4.645-1.155,7.315-1.155c5.492,0,9.56,1.721,12.205,5.159c2.643,3.439,3.965,8.111,3.965,14.014
			c0,3.132-0.334,6.02-1.001,8.663c-0.668,2.645-1.746,4.916-3.234,6.814c-1.49,1.899-3.427,3.376-5.813,4.428
			c-2.387,1.051-5.274,1.578-8.663,1.578c-1.9,0-3.619-0.258-5.159-0.771c-1.438-0.358-2.798-1.001-4.081-1.925l-0.77,1.771h-8.162
			V25.386z M685.398,74.896l1.386,0.539c1.282,0.462,2.541,0.693,3.773,0.693c1.334,0,2.58-0.218,3.734-0.654
			c1.155-0.436,2.143-1.155,2.964-2.156c0.821-1.001,1.463-2.335,1.925-4.004c0.462-1.668,0.693-3.734,0.693-6.198
			c0-8.213-2.849-12.32-8.547-12.32c-1.694,0-3.261,0.437-4.697,1.309c-0.411,0.206-0.822,0.514-1.232,0.925V74.896z"/>
		<path fill="#5851DF" d="M715.814,63.27c0-6.775,1.617-11.831,4.851-15.169c3.234-3.336,8.393-5.005,15.477-5.005
			c3.593,0,6.584,0.476,8.971,1.425c2.387,0.95,4.299,2.31,5.736,4.081c1.437,1.771,2.464,3.927,3.08,6.468
			c0.616,2.541,0.924,5.403,0.924,8.586c0,6.775-1.63,11.819-4.89,15.13c-3.261,3.312-8.458,4.967-15.593,4.967
			c-3.593,0-6.583-0.476-8.97-1.425c-2.387-0.949-4.287-2.31-5.698-4.081c-1.412-1.771-2.413-3.913-3.003-6.43
			C716.108,69.303,715.814,66.453,715.814,63.27z M736.142,50.488c-3.542,0-5.942,1.129-7.199,3.388
			c-1.258,2.26-1.887,5.621-1.887,10.087c0,1.694,0.103,3.286,0.308,4.774c0.205,1.489,0.578,2.798,1.117,3.927
			c0.539,1.13,1.282,2.015,2.233,2.656c0.949,0.643,2.168,0.963,3.657,0.963c3.645,0,6.108-1.129,7.392-3.389
			c1.283-2.258,1.925-5.569,1.925-9.933c0-1.694-0.104-3.298-0.308-4.813c-0.206-1.514-0.578-2.836-1.117-3.966
			c-0.539-1.128-1.309-2.027-2.31-2.694S737.682,50.488,736.142,50.488z"/>
		<path fill="#5851DF" d="M760.626,47.1c2.052-1.128,4.582-2.079,7.584-2.849c3.003-0.771,6.044-1.155,9.125-1.155
			c3.028,0,5.556,0.27,7.584,0.809c2.027,0.539,3.657,1.438,4.89,2.695c1.232,1.258,2.104,2.939,2.618,5.043
			c0.513,2.105,0.77,4.697,0.77,7.777v12.012c0,1.54,0.308,2.593,0.924,3.157c0.616,0.565,1.513,0.847,2.695,0.847v7.393
			c-0.976,0.205-2.31,0.308-4.004,0.308c-2.208,0-4.031-0.308-5.467-0.924c-1.438-0.616-2.593-1.591-3.465-2.926
			c-1.438,1.335-3.234,2.413-5.39,3.233c-2.156,0.821-4.209,1.232-6.16,1.232c-2.824,0-5.109-0.347-6.853-1.04
			c-1.746-0.692-3.093-1.604-4.042-2.733c-0.951-1.128-1.579-2.425-1.887-3.888c-0.308-1.464-0.462-2.99-0.462-4.582
			c0-2.566,0.41-4.671,1.232-6.313c0.82-1.643,1.989-2.927,3.503-3.851c1.514-0.924,3.35-1.565,5.505-1.925
			c2.156-0.358,4.543-0.539,7.161-0.539c0.873,0,1.822,0.014,2.849,0.038c1.026,0.027,1.95,0.065,2.772,0.116v-1.771
			c0-2.156-0.591-3.772-1.771-4.851c-1.182-1.078-3.106-1.617-5.775-1.617c-2.208,0-4.312,0.27-6.314,0.809
			s-3.825,1.271-5.467,2.194L760.626,47.1z M782.109,66.272c-0.976-0.102-1.925-0.166-2.849-0.192
			c-0.924-0.025-1.823-0.038-2.695-0.038c-2.31,0-3.915,0.437-4.813,1.309c-0.899,0.874-1.348,2.105-1.348,3.696
			c0,1.694,0.32,2.991,0.962,3.889c0.642,0.898,1.887,1.348,3.735,1.348c0.924,0,2.065-0.192,3.426-0.578
			c1.359-0.385,2.553-1.064,3.581-2.04V66.272z"/>
		<path fill="#5851DF" d="M801.59,44.02h10.164l0.616,4.158c0.872-1.18,1.95-2.129,3.234-2.849c2.515-1.488,5.133-2.233,7.854-2.233
			c1.437,0,2.707,0.143,3.812,0.424c1.104,0.282,2.041,0.577,2.811,0.886l-2.541,8.624c-1.335-0.821-3.003-1.232-5.005-1.232
			c-2.054,0-4.03,0.514-5.929,1.54c-0.514,0.258-1.014,0.565-1.501,0.924c-0.488,0.36-0.937,0.797-1.347,1.31v27.258h-11.011V55.031
			L801.59,44.02z"/>
		<path fill="#5851DF" d="M856.259,25.386l11.011-1.463v48.51l0.77,10.396h-9.394l-0.77-2.311c-1.284,0.874-2.618,1.566-4.004,2.079
			c-2.259,0.771-4.646,1.155-7.161,1.155c-2.772,0-5.186-0.45-7.238-1.348c-2.054-0.897-3.748-2.182-5.082-3.85
			c-1.335-1.668-2.323-3.696-2.964-6.083c-0.643-2.388-0.962-5.044-0.962-7.97c0-3.08,0.333-5.929,1.001-8.547
			c0.667-2.618,1.745-4.876,3.234-6.776c1.488-1.898,3.413-3.388,5.775-4.466c2.361-1.078,5.261-1.617,8.701-1.617
			c1.898,0,3.592,0.258,5.082,0.771c0.358,0.104,0.705,0.205,1.04,0.308c0.333,0.104,0.654,0.206,0.962,0.308V25.386z
			 M856.259,52.028c-0.412-0.257-0.847-0.487-1.309-0.693c-1.386-0.41-2.645-0.616-3.773-0.616c-1.335,0-2.58,0.219-3.734,0.654
			c-1.155,0.438-2.144,1.155-2.965,2.156c-0.821,1.001-1.463,2.337-1.925,4.004c-0.462,1.669-0.693,3.734-0.693,6.198
			c0,8.214,2.849,12.32,8.547,12.32c1.694,0,3.285-0.436,4.774-1.309l1.078-0.848V52.028z"/>
	</g>
</g>
<g>
	<g>
		<path fill="#4D4DDB" d="M68.976-74.21h34.022v-23.879c0-4.318-0.326-7.959-0.975-10.912c-0.647-2.953-1.75-5.348-3.303-7.174
			c-1.55-1.824-3.62-3.156-6.213-3.984c-2.591-0.83-5.83-1.246-9.718-1.246h-0.601H68.976V-74.21z"/>
		<polygon fill="#FF7900" points="59.573,-74.21 59.573,-121.405 45.643,-121.405 40.456,-121.405 3,-121.405 3,-89.354 3,-74.21 		
			"/>
		<path fill="#207589" d="M34.377-64.812H3v20.092c0,4.318,0.319,7.955,0.969,10.912c0.647,2.953,1.749,5.346,3.306,7.168
			c1.553,1.83,3.623,3.158,6.215,3.988c2.589,0.83,5.83,1.246,9.714,1.246h0.603h10.571V-64.812z"/>
		<polygon fill="#D82121" points="43.775,-64.812 43.775,-21.405 60.351,-21.405 65.539,-21.405 102.998,-21.405 102.998,-53.456 
			102.998,-64.812 		"/>
	</g>
</g>
<g>
	<path fill="#FFFFFF" d="M127.54-96.997h11.242v55.825H127.54V-96.997z"/>
	<path fill="#FFFFFF" d="M146.865-79.98h10.318l0.231,2.695c1.334-0.872,2.746-1.565,4.235-2.079c3.08-1.026,5.877-1.54,8.393-1.54
		c2.515,0,4.582,0.321,6.198,0.963c1.617,0.643,2.913,1.54,3.889,2.694c0.975,1.155,1.656,2.58,2.041,4.274
		c0.385,1.693,0.578,3.568,0.578,5.62v26.181h-11.011v-23.676c0-0.97-0.039-1.901-0.115-2.796c-0.077-0.894-0.296-1.673-0.655-2.337
		c-0.359-0.665-0.898-1.2-1.617-1.609c-0.72-0.409-1.694-0.613-2.926-0.613c-1.797,0-3.337,0.229-4.62,0.689
		c-1.232,0.512-2.285,1.048-3.157,1.609v28.732h-11.011v-28.413L146.865-79.98z"/>
	<path fill="#FFFFFF" d="M192.911-87.218l11.011-2.002v9.239h13.321v8.085h-13.321v15.862c0,0.976,0.039,1.899,0.115,2.772
		c0.077,0.873,0.282,1.644,0.616,2.31c0.333,0.668,0.847,1.207,1.54,1.617c0.693,0.411,1.629,0.616,2.811,0.616
		c1.59,0,3.028-0.166,4.312-0.501c1.282-0.333,2.514-0.809,3.696-1.425l1.694,7.238c-3.953,2.105-8.368,3.157-13.244,3.157
		c-2.568,0-4.659-0.321-6.276-0.963c-1.617-0.641-2.887-1.54-3.812-2.694c-0.924-1.155-1.553-2.566-1.886-4.235
		c-0.334-1.668-0.5-3.528-0.5-5.582v-18.173h-6.622v-7.16l6.545-0.771V-87.218z"/>
	<path fill="#FFFFFF" d="M232.874-57.958c0,2.618,0.513,4.801,1.54,6.545c1.386,2.26,4.158,3.388,8.316,3.388
		c1.54,0,2.899-0.102,4.081-0.308c1.18-0.205,2.258-0.462,3.234-0.771c0.975-0.308,1.887-0.654,2.733-1.039
		c0.847-0.385,1.681-0.757,2.503-1.116l2.079,6.853c-0.77,0.462-1.759,0.95-2.964,1.463c-1.207,0.514-2.541,0.963-4.004,1.348
		s-3.003,0.706-4.62,0.963c-1.617,0.256-3.222,0.385-4.813,0.385c-7.136,0-12.166-1.72-15.092-5.159
		c-2.875-3.49-4.312-8.624-4.312-15.399c0-13.398,6.416-20.098,19.25-20.098c3.542,0,6.429,0.476,8.663,1.425
		c2.233,0.95,3.978,2.271,5.236,3.966c1.257,1.693,2.118,3.695,2.58,6.006c0.462,2.31,0.693,4.851,0.693,7.623v3.927H232.874z
		 M246.58-65.119c0-2.771-0.45-4.915-1.348-6.43c-0.898-1.514-2.425-2.271-4.582-2.271c-2.464,0-4.312,0.604-5.544,1.81
		c-1.232,1.207-1.925,2.965-2.079,5.274c-0.051,0.258-0.077,0.514-0.077,0.771s0,0.539,0,0.847H246.58z"/>
	<path fill="#FFFFFF" d="M264.213-98.614l10.934-1.463V-53.8c0,1.182,0.077,2.117,0.231,2.811c0.154,0.692,0.397,1.22,0.731,1.578
		c0.333,0.359,0.782,0.591,1.347,0.693c0.564,0.104,1.283,0.153,2.156,0.153v7.623c-0.154,0.052-0.462,0.077-0.924,0.077
		c-0.308,0.103-0.643,0.154-1.001,0.154h-0.924c-2.362,0-4.351-0.281-5.967-0.847c-1.617-0.564-2.914-1.398-3.889-2.503
		c-0.976-1.104-1.669-2.451-2.079-4.043c-0.411-1.59-0.616-3.413-0.616-5.467V-98.614z"/>
	<path fill="#FFFFFF" d="M283.924-98.614l10.934-1.463V-53.8c0,1.182,0.077,2.117,0.231,2.811c0.154,0.692,0.397,1.22,0.731,1.578
		c0.333,0.359,0.782,0.591,1.347,0.693c0.564,0.104,1.283,0.153,2.156,0.153v7.623c-0.154,0.052-0.462,0.077-0.924,0.077
		c-0.308,0.103-0.643,0.154-1.001,0.154h-0.924c-2.362,0-4.351-0.281-5.967-0.847c-1.617-0.564-2.914-1.398-3.889-2.503
		c-0.976-1.104-1.669-2.451-2.079-4.043c-0.411-1.59-0.616-3.413-0.616-5.467V-98.614z"/>
	<path fill="#FFFFFF" d="M300.787-79.98h12.166l8.008,24.948h0.847l7.7-24.948h11.165L325.35-39.324
		c-0.924,2.412-1.887,4.62-2.888,6.622s-2.208,3.708-3.619,5.12c-1.413,1.412-3.093,2.515-5.043,3.312
		c-1.952,0.795-4.339,1.193-7.161,1.193c-0.924,0-1.887-0.038-2.888-0.115s-1.938-0.27-2.811-0.578l1.386-7.392
		c1.128,0.256,2.207,0.385,3.234,0.385c1.898,0,3.362-0.296,4.389-0.886c1.026-0.59,1.771-1.271,2.233-2.04
		c0.718-0.821,1.411-2.079,2.079-3.773c0.667-1.693,1.309-3.361,1.925-5.005L300.787-79.98z"/>
	<path fill="#FFFFFF" d="M348.757-87.218l11.011-2.002v9.239h13.321v8.085h-13.321v15.862c0,0.976,0.039,1.899,0.115,2.772
		c0.077,0.873,0.282,1.644,0.616,2.31c0.333,0.668,0.847,1.207,1.54,1.617c0.693,0.411,1.629,0.616,2.811,0.616
		c1.59,0,3.028-0.166,4.312-0.501c1.282-0.333,2.514-0.809,3.696-1.425l1.694,7.238c-3.953,2.105-8.368,3.157-13.244,3.157
		c-2.568,0-4.659-0.321-6.276-0.963c-1.617-0.641-2.887-1.54-3.812-2.694c-0.924-1.155-1.553-2.566-1.886-4.235
		c-0.334-1.668-0.5-3.528-0.5-5.582v-18.173h-6.622v-7.16l6.545-0.771V-87.218z"/>
	<path fill="#FFFFFF" d="M380.481-96.997h11.165v8.854h-11.165V-96.997z M380.558-79.98h11.011v38.809h-11.011V-79.98z"/>
	<path fill="#FFFFFF" d="M426.681-69.816c-1.078-1.282-2.246-2.181-3.503-2.694c-1.258-0.513-2.683-0.771-4.273-0.771
		c-3.388,0-5.865,1.015-7.431,3.042c-1.566,2.028-2.348,5.455-2.348,10.279c0,3.85,0.68,6.827,2.041,8.932
		c1.359,2.105,3.812,3.157,7.354,3.157c2.31,0,4.312-0.256,6.006-0.77c1.694-0.513,3.438-1.232,5.236-2.156l2.002,7.007
		c-1.386,0.976-3.324,1.81-5.813,2.502c-2.49,0.693-5.352,1.04-8.585,1.04c-3.542,0-6.545-0.424-9.009-1.271
		c-2.464-0.847-4.466-2.104-6.006-3.773c-1.54-1.667-2.656-3.721-3.349-6.159c-0.693-2.438-1.04-5.275-1.04-8.509
		c0-7.135,1.771-12.409,5.313-15.823s8.778-5.121,15.708-5.121c2.926,0,5.633,0.476,8.124,1.425c2.489,0.95,4.401,2.221,5.736,3.812
		L426.681-69.816z"/>
	<path fill="#FFFFFF" d="M445.93-57.804c-1.335-0.411-2.592-0.911-3.773-1.502c-1.181-0.59-2.208-1.309-3.08-2.156
		c-0.874-0.847-1.554-1.873-2.041-3.08c-0.489-1.205-0.732-2.63-0.732-4.273c0-4.055,1.502-7.084,4.505-9.086
		s7.123-3.003,12.358-3.003c3.285,0,6.146,0.258,8.585,0.771c2.438,0.514,4.735,1.206,6.892,2.079l-3.234,7.776
		c-1.644-0.924-3.517-1.642-5.621-2.156c-2.105-0.512-4.312-0.77-6.622-0.77c-2.054,0-3.646,0.27-4.774,0.809
		c-1.13,0.539-1.694,1.348-1.694,2.426c0,0.924,0.424,1.682,1.271,2.271c0.847,0.591,2.168,1.143,3.966,1.655
		c0.358,0.154,0.847,0.334,1.463,0.539s1.271,0.411,1.963,0.616s1.36,0.397,2.002,0.577c0.642,0.181,1.194,0.321,1.656,0.424
		c1.334,0.411,2.591,0.885,3.773,1.424c1.18,0.539,2.207,1.232,3.08,2.079c0.872,0.848,1.565,1.9,2.079,3.157
		c0.512,1.259,0.77,2.76,0.77,4.505c0,4.157-1.501,7.276-4.504,9.355c-3.003,2.078-7.149,3.118-12.436,3.118
		c-3.542,0-6.545-0.283-9.009-0.847c-2.464-0.564-4.774-1.258-6.93-2.079l3.311-7.777c1.591,0.873,3.427,1.566,5.505,2.079
		c2.079,0.514,4.428,0.77,7.046,0.77c2.002,0,3.567-0.27,4.697-0.808c1.128-0.539,1.694-1.425,1.694-2.657
		c0-1.693-1.72-3.08-5.159-4.158L445.93-57.804z"/>
	<path fill="#FFFFFF" d="M496.134-96.997h18.095c4.62,0,8.727,0.514,12.32,1.54c3.592,1.027,6.634,2.656,9.124,4.89
		c2.489,2.232,4.376,5.134,5.66,8.701c1.283,3.568,1.925,7.893,1.925,12.974c0,5.236-0.797,9.625-2.387,13.167
		c-1.592,3.542-3.786,6.392-6.583,8.548c-2.798,2.155-6.096,3.695-9.895,4.619c-3.799,0.925-7.906,1.387-12.32,1.387h-15.939
		V-96.997z M507.376-88.296v38.423h4.235c3.08,0,5.852-0.321,8.316-0.966c2.464-0.644,4.543-1.739,6.237-3.286
		c1.694-1.546,3.003-3.595,3.927-6.146c0.924-2.551,1.386-5.76,1.386-9.626c0-6.338-1.553-10.989-4.659-13.954
		c-3.106-2.963-7.38-4.445-12.82-4.445H507.376z"/>
	<path fill="#FFFFFF" d="M549.957-76.9c2.052-1.128,4.582-2.079,7.584-2.849c3.003-0.771,6.044-1.155,9.125-1.155
		c3.028,0,5.556,0.27,7.584,0.809c2.027,0.539,3.657,1.438,4.89,2.695c1.232,1.258,2.104,2.939,2.618,5.043
		c0.513,2.105,0.77,4.697,0.77,7.777v12.012c0,1.54,0.308,2.593,0.924,3.157c0.616,0.565,1.513,0.847,2.695,0.847v7.393
		c-0.976,0.205-2.31,0.308-4.004,0.308c-2.208,0-4.031-0.308-5.467-0.924c-1.438-0.616-2.593-1.591-3.465-2.926
		c-1.438,1.335-3.234,2.413-5.39,3.233c-2.156,0.821-4.209,1.232-6.16,1.232c-2.824,0-5.109-0.347-6.853-1.04
		c-1.746-0.692-3.093-1.604-4.042-2.733c-0.951-1.128-1.579-2.425-1.887-3.888c-0.308-1.464-0.462-2.99-0.462-4.582
		c0-2.566,0.41-4.671,1.232-6.313c0.82-1.643,1.989-2.927,3.503-3.851c1.514-0.924,3.35-1.565,5.505-1.925
		c2.156-0.358,4.543-0.539,7.161-0.539c0.873,0,1.822,0.014,2.849,0.038c1.026,0.027,1.95,0.065,2.772,0.116v-1.771
		c0-2.156-0.591-3.772-1.771-4.851c-1.182-1.078-3.106-1.617-5.775-1.617c-2.208,0-4.312,0.27-6.314,0.809s-3.825,1.271-5.467,2.194
		L549.957-76.9z M571.44-57.728c-0.976-0.102-1.925-0.166-2.849-0.192c-0.924-0.025-1.823-0.038-2.695-0.038
		c-2.31,0-3.915,0.437-4.813,1.309c-0.899,0.874-1.348,2.105-1.348,3.696c0,1.694,0.32,2.991,0.962,3.889
		c0.642,0.898,1.887,1.348,3.735,1.348c0.924,0,2.065-0.192,3.426-0.578c1.359-0.385,2.553-1.064,3.581-2.04V-57.728z"/>
	<path fill="#FFFFFF" d="M600.083-57.804c-1.335-0.411-2.592-0.911-3.773-1.502c-1.181-0.59-2.208-1.309-3.08-2.156
		c-0.874-0.847-1.554-1.873-2.041-3.08c-0.489-1.205-0.732-2.63-0.732-4.273c0-4.055,1.502-7.084,4.505-9.086
		s7.123-3.003,12.358-3.003c3.285,0,6.146,0.258,8.585,0.771c2.438,0.514,4.735,1.206,6.892,2.079l-3.234,7.776
		c-1.644-0.924-3.517-1.642-5.621-2.156c-2.105-0.512-4.312-0.77-6.622-0.77c-2.054,0-3.646,0.27-4.774,0.809
		c-1.13,0.539-1.694,1.348-1.694,2.426c0,0.924,0.424,1.682,1.271,2.271c0.847,0.591,2.168,1.143,3.966,1.655
		c0.358,0.154,0.847,0.334,1.463,0.539s1.271,0.411,1.963,0.616s1.36,0.397,2.002,0.577c0.642,0.181,1.194,0.321,1.656,0.424
		c1.334,0.411,2.591,0.885,3.773,1.424c1.18,0.539,2.207,1.232,3.08,2.079c0.872,0.848,1.565,1.9,2.079,3.157
		c0.513,1.259,0.77,2.76,0.77,4.505c0,4.157-1.501,7.276-4.504,9.355c-3.003,2.078-7.149,3.118-12.436,3.118
		c-3.542,0-6.545-0.283-9.009-0.847c-2.464-0.564-4.774-1.258-6.93-2.079l3.311-7.777c1.591,0.873,3.427,1.566,5.505,2.079
		c2.079,0.514,4.428,0.77,7.046,0.77c2.002,0,3.567-0.27,4.697-0.808c1.128-0.539,1.694-1.425,1.694-2.657
		c0-1.693-1.72-3.08-5.159-4.158L600.083-57.804z"/>
	<path fill="#FFFFFF" d="M630.268-98.614l11.011-1.463v22.176c0.513-0.256,1.026-0.513,1.54-0.77
		c0.513-0.257,1.052-0.487,1.617-0.693c1.386-0.513,2.797-0.897,4.235-1.155c1.437-0.256,2.797-0.385,4.081-0.385
		c2.515,0,4.582,0.322,6.198,0.965c1.617,0.643,2.913,1.556,3.889,2.738c0.975,1.185,1.656,2.598,2.041,4.244
		c0.385,1.646,0.578,3.497,0.578,5.555v26.23h-11.011v-23.734c0-0.972-0.039-1.894-0.115-2.765
		c-0.077-0.871-0.296-1.639-0.655-2.306c-0.359-0.665-0.898-1.203-1.617-1.611c-0.72-0.409-1.694-0.615-2.926-0.615
		c-1.797,0-3.337,0.231-4.62,0.691c-1.335,0.563-2.413,1.127-3.234,1.689v28.65h-11.011V-98.614z"/>
	<path fill="#FFFFFF" d="M674.388-98.614l11.011-1.463v21.483c0.924-0.513,1.719-0.897,2.387-1.155
		c2.207-0.771,4.645-1.155,7.315-1.155c5.492,0,9.56,1.721,12.205,5.159c2.643,3.439,3.965,8.111,3.965,14.014
		c0,3.132-0.334,6.02-1.001,8.663c-0.668,2.645-1.746,4.916-3.234,6.814c-1.49,1.899-3.427,3.376-5.813,4.428
		c-2.387,1.051-5.274,1.578-8.663,1.578c-1.9,0-3.619-0.258-5.159-0.771c-1.438-0.358-2.798-1.001-4.081-1.925l-0.77,1.771h-8.162
		V-98.614z M685.398-49.104l1.386,0.539c1.282,0.462,2.541,0.693,3.773,0.693c1.334,0,2.58-0.218,3.734-0.654
		c1.155-0.436,2.143-1.155,2.964-2.156c0.821-1.001,1.463-2.335,1.925-4.004c0.462-1.668,0.693-3.734,0.693-6.198
		c0-8.213-2.849-12.32-8.547-12.32c-1.694,0-3.261,0.437-4.697,1.309c-0.411,0.206-0.822,0.514-1.232,0.925V-49.104z"/>
	<path fill="#FFFFFF" d="M715.814-60.73c0-6.775,1.617-11.831,4.851-15.169c3.234-3.336,8.393-5.005,15.477-5.005
		c3.593,0,6.584,0.476,8.971,1.425c2.387,0.95,4.299,2.31,5.736,4.081c1.437,1.771,2.464,3.927,3.08,6.468
		c0.616,2.541,0.924,5.403,0.924,8.586c0,6.775-1.63,11.819-4.89,15.13c-3.261,3.312-8.458,4.967-15.593,4.967
		c-3.593,0-6.583-0.476-8.97-1.425c-2.387-0.949-4.287-2.31-5.698-4.081c-1.412-1.771-2.413-3.913-3.003-6.43
		C716.108-54.697,715.814-57.547,715.814-60.73z M736.142-73.512c-3.542,0-5.942,1.129-7.199,3.388
		c-1.258,2.26-1.887,5.621-1.887,10.087c0,1.694,0.103,3.286,0.308,4.774c0.205,1.489,0.578,2.798,1.117,3.927
		c0.539,1.13,1.282,2.015,2.233,2.656c0.949,0.643,2.168,0.963,3.657,0.963c3.645,0,6.108-1.129,7.392-3.389
		c1.283-2.258,1.925-5.569,1.925-9.933c0-1.694-0.104-3.298-0.308-4.813c-0.206-1.514-0.578-2.836-1.117-3.966
		c-0.539-1.128-1.309-2.027-2.31-2.694S737.682-73.512,736.142-73.512z"/>
	<path fill="#FFFFFF" d="M760.626-76.9c2.052-1.128,4.582-2.079,7.584-2.849c3.003-0.771,6.044-1.155,9.125-1.155
		c3.028,0,5.556,0.27,7.584,0.809c2.027,0.539,3.657,1.438,4.89,2.695c1.232,1.258,2.104,2.939,2.618,5.043
		c0.513,2.105,0.77,4.697,0.77,7.777v12.012c0,1.54,0.308,2.593,0.924,3.157c0.616,0.565,1.513,0.847,2.695,0.847v7.393
		c-0.976,0.205-2.31,0.308-4.004,0.308c-2.208,0-4.031-0.308-5.467-0.924c-1.438-0.616-2.593-1.591-3.465-2.926
		c-1.438,1.335-3.234,2.413-5.39,3.233c-2.156,0.821-4.209,1.232-6.16,1.232c-2.824,0-5.109-0.347-6.853-1.04
		c-1.746-0.692-3.093-1.604-4.042-2.733c-0.951-1.128-1.579-2.425-1.887-3.888c-0.308-1.464-0.462-2.99-0.462-4.582
		c0-2.566,0.41-4.671,1.232-6.313c0.82-1.643,1.989-2.927,3.503-3.851c1.514-0.924,3.35-1.565,5.505-1.925
		c2.156-0.358,4.543-0.539,7.161-0.539c0.873,0,1.822,0.014,2.849,0.038c1.026,0.027,1.95,0.065,2.772,0.116v-1.771
		c0-2.156-0.591-3.772-1.771-4.851c-1.182-1.078-3.106-1.617-5.775-1.617c-2.208,0-4.312,0.27-6.314,0.809s-3.825,1.271-5.467,2.194
		L760.626-76.9z M782.109-57.728c-0.976-0.102-1.925-0.166-2.849-0.192c-0.924-0.025-1.823-0.038-2.695-0.038
		c-2.31,0-3.915,0.437-4.813,1.309c-0.899,0.874-1.348,2.105-1.348,3.696c0,1.694,0.32,2.991,0.962,3.889
		c0.642,0.898,1.887,1.348,3.735,1.348c0.924,0,2.065-0.192,3.426-0.578c1.359-0.385,2.553-1.064,3.581-2.04V-57.728z"/>
	<path fill="#FFFFFF" d="M801.59-79.98h10.164l0.616,4.158c0.872-1.18,1.95-2.129,3.234-2.849c2.515-1.488,5.133-2.233,7.854-2.233
		c1.437,0,2.707,0.143,3.812,0.424c1.104,0.282,2.041,0.577,2.811,0.886l-2.541,8.624c-1.335-0.821-3.003-1.232-5.005-1.232
		c-2.054,0-4.03,0.514-5.929,1.54c-0.514,0.258-1.014,0.565-1.501,0.924c-0.488,0.36-0.937,0.797-1.347,1.31v27.258h-11.011v-27.797
		L801.59-79.98z"/>
	<path fill="#FFFFFF" d="M856.259-98.614l11.011-1.463v48.51l0.77,10.396h-9.394l-0.77-2.311c-1.284,0.874-2.618,1.566-4.004,2.079
		c-2.259,0.771-4.646,1.155-7.161,1.155c-2.772,0-5.186-0.45-7.238-1.348c-2.054-0.897-3.748-2.182-5.082-3.85
		c-1.335-1.668-2.323-3.696-2.964-6.083c-0.643-2.388-0.962-5.044-0.962-7.97c0-3.08,0.333-5.929,1.001-8.547
		c0.667-2.618,1.745-4.876,3.234-6.776c1.488-1.898,3.413-3.388,5.775-4.466c2.361-1.078,5.261-1.617,8.701-1.617
		c1.898,0,3.592,0.258,5.082,0.771c0.358,0.104,0.705,0.205,1.04,0.308c0.333,0.104,0.654,0.206,0.962,0.308V-98.614z
		 M856.259-71.972c-0.412-0.257-0.847-0.487-1.309-0.693c-1.386-0.41-2.645-0.616-3.773-0.616c-1.335,0-2.58,0.219-3.734,0.654
		c-1.155,0.438-2.144,1.155-2.965,2.156c-0.821,1.001-1.463,2.337-1.925,4.004c-0.462,1.669-0.693,3.734-0.693,6.198
		c0,8.214,2.849,12.32,8.547,12.32c1.694,0,3.285-0.436,4.774-1.309l1.078-0.848V-71.972z"/>
</g>
<g>
	<g>
		<path fill="#4D4DDB" d="M68.976,191.79h34.022v-23.879c0-4.318-0.326-7.959-0.975-10.912c-0.647-2.953-1.75-5.348-3.303-7.174
			c-1.55-1.824-3.62-3.156-6.213-3.984c-2.591-0.83-5.83-1.246-9.718-1.246h-0.601H68.976V191.79z"/>
		<polygon fill="#FF7900" points="59.573,191.79 59.573,144.595 45.643,144.595 40.456,144.595 3,144.595 3,176.646 3,191.79 		"/>
		<path fill="#207589" d="M34.377,201.188H3v20.092c0,4.318,0.319,7.955,0.969,10.912c0.647,2.953,1.749,5.346,3.306,7.168
			c1.553,1.83,3.623,3.158,6.215,3.988c2.589,0.83,5.83,1.246,9.714,1.246h0.603h10.571V201.188z"/>
		<polygon fill="#D82121" points="43.775,201.188 43.775,244.595 60.351,244.595 65.539,244.595 102.998,244.595 102.998,212.544 
			102.998,201.188 		"/>
	</g>
</g>
<g>
	<path fill="#212529" d="M127.54,169.003h11.242v55.825H127.54V169.003z"/>
	<path fill="#212529" d="M146.865,186.02h10.318l0.231,2.695c1.334-0.872,2.746-1.565,4.235-2.079c3.08-1.026,5.877-1.54,8.393-1.54
		c2.515,0,4.582,0.321,6.198,0.963c1.617,0.643,2.913,1.54,3.889,2.694c0.975,1.155,1.656,2.58,2.041,4.274
		c0.385,1.693,0.578,3.568,0.578,5.62v26.181h-11.011v-23.676c0-0.97-0.039-1.901-0.115-2.796c-0.077-0.894-0.296-1.673-0.655-2.337
		c-0.359-0.665-0.898-1.2-1.617-1.609c-0.72-0.409-1.694-0.613-2.926-0.613c-1.797,0-3.337,0.229-4.62,0.689
		c-1.232,0.512-2.285,1.048-3.157,1.609v28.732h-11.011v-28.413L146.865,186.02z"/>
	<path fill="#212529" d="M192.911,178.782l11.011-2.002v9.239h13.321v8.085h-13.321v15.862c0,0.976,0.039,1.899,0.115,2.772
		c0.077,0.873,0.282,1.644,0.616,2.31c0.333,0.668,0.847,1.207,1.54,1.617c0.693,0.411,1.629,0.616,2.811,0.616
		c1.59,0,3.028-0.166,4.312-0.501c1.282-0.333,2.514-0.809,3.696-1.425l1.694,7.238c-3.953,2.105-8.368,3.157-13.244,3.157
		c-2.568,0-4.659-0.321-6.276-0.963c-1.617-0.641-2.887-1.54-3.812-2.694c-0.924-1.155-1.553-2.566-1.886-4.235
		c-0.334-1.668-0.5-3.528-0.5-5.582v-18.173h-6.622v-7.16l6.545-0.771V178.782z"/>
	<path fill="#212529" d="M232.874,208.042c0,2.618,0.513,4.801,1.54,6.545c1.386,2.26,4.158,3.388,8.316,3.388
		c1.54,0,2.899-0.102,4.081-0.308c1.18-0.205,2.258-0.462,3.234-0.771c0.975-0.308,1.887-0.654,2.733-1.039
		c0.847-0.385,1.681-0.757,2.503-1.116l2.079,6.853c-0.77,0.462-1.759,0.95-2.964,1.463c-1.207,0.514-2.541,0.963-4.004,1.348
		s-3.003,0.706-4.62,0.963c-1.617,0.256-3.222,0.385-4.813,0.385c-7.136,0-12.166-1.72-15.092-5.159
		c-2.875-3.49-4.312-8.624-4.312-15.399c0-13.398,6.416-20.098,19.25-20.098c3.542,0,6.429,0.476,8.663,1.425
		c2.233,0.95,3.978,2.271,5.236,3.966c1.257,1.693,2.118,3.695,2.58,6.006c0.462,2.31,0.693,4.851,0.693,7.623v3.927H232.874z
		 M246.58,200.881c0-2.771-0.45-4.915-1.348-6.43c-0.898-1.514-2.425-2.271-4.582-2.271c-2.464,0-4.312,0.604-5.544,1.81
		c-1.232,1.207-1.925,2.965-2.079,5.274c-0.051,0.258-0.077,0.514-0.077,0.771s0,0.539,0,0.847H246.58z"/>
	<path fill="#212529" d="M264.213,167.386l10.934-1.463V212.2c0,1.182,0.077,2.117,0.231,2.811c0.154,0.692,0.397,1.22,0.731,1.578
		c0.333,0.359,0.782,0.591,1.347,0.693c0.564,0.104,1.283,0.153,2.156,0.153v7.623c-0.154,0.052-0.462,0.077-0.924,0.077
		c-0.308,0.103-0.643,0.154-1.001,0.154h-0.924c-2.362,0-4.351-0.281-5.967-0.847c-1.617-0.564-2.914-1.398-3.889-2.503
		c-0.976-1.104-1.669-2.451-2.079-4.043c-0.411-1.59-0.616-3.413-0.616-5.467V167.386z"/>
	<path fill="#212529" d="M283.924,167.386l10.934-1.463V212.2c0,1.182,0.077,2.117,0.231,2.811c0.154,0.692,0.397,1.22,0.731,1.578
		c0.333,0.359,0.782,0.591,1.347,0.693c0.564,0.104,1.283,0.153,2.156,0.153v7.623c-0.154,0.052-0.462,0.077-0.924,0.077
		c-0.308,0.103-0.643,0.154-1.001,0.154h-0.924c-2.362,0-4.351-0.281-5.967-0.847c-1.617-0.564-2.914-1.398-3.889-2.503
		c-0.976-1.104-1.669-2.451-2.079-4.043c-0.411-1.59-0.616-3.413-0.616-5.467V167.386z"/>
	<path fill="#212529" d="M300.787,186.02h12.166l8.008,24.948h0.847l7.7-24.948h11.165l-15.323,40.656
		c-0.924,2.412-1.887,4.62-2.888,6.622s-2.208,3.708-3.619,5.12c-1.413,1.412-3.093,2.515-5.043,3.312
		c-1.952,0.795-4.339,1.193-7.161,1.193c-0.924,0-1.887-0.038-2.888-0.115s-1.938-0.27-2.811-0.578l1.386-7.392
		c1.128,0.256,2.207,0.385,3.234,0.385c1.898,0,3.362-0.296,4.389-0.886c1.026-0.59,1.771-1.271,2.233-2.04
		c0.718-0.821,1.411-2.079,2.079-3.773c0.667-1.693,1.309-3.361,1.925-5.005L300.787,186.02z"/>
	<path fill="#212529" d="M348.757,178.782l11.011-2.002v9.239h13.321v8.085h-13.321v15.862c0,0.976,0.039,1.899,0.115,2.772
		c0.077,0.873,0.282,1.644,0.616,2.31c0.333,0.668,0.847,1.207,1.54,1.617c0.693,0.411,1.629,0.616,2.811,0.616
		c1.59,0,3.028-0.166,4.312-0.501c1.282-0.333,2.514-0.809,3.696-1.425l1.694,7.238c-3.953,2.105-8.368,3.157-13.244,3.157
		c-2.568,0-4.659-0.321-6.276-0.963c-1.617-0.641-2.887-1.54-3.812-2.694c-0.924-1.155-1.553-2.566-1.886-4.235
		c-0.334-1.668-0.5-3.528-0.5-5.582v-18.173h-6.622v-7.16l6.545-0.771V178.782z"/>
	<path fill="#212529" d="M380.481,169.003h11.165v8.854h-11.165V169.003z M380.558,186.02h11.011v38.809h-11.011V186.02z"/>
	<path fill="#212529" d="M426.681,196.184c-1.078-1.282-2.246-2.181-3.503-2.694c-1.258-0.513-2.683-0.771-4.273-0.771
		c-3.388,0-5.865,1.015-7.431,3.042c-1.566,2.028-2.348,5.455-2.348,10.279c0,3.85,0.68,6.827,2.041,8.932
		c1.359,2.105,3.812,3.157,7.354,3.157c2.31,0,4.312-0.256,6.006-0.77c1.694-0.513,3.438-1.232,5.236-2.156l2.002,7.007
		c-1.386,0.976-3.324,1.81-5.813,2.502c-2.49,0.693-5.352,1.04-8.585,1.04c-3.542,0-6.545-0.424-9.009-1.271
		c-2.464-0.847-4.466-2.104-6.006-3.773c-1.54-1.667-2.656-3.721-3.349-6.159c-0.693-2.438-1.04-5.275-1.04-8.509
		c0-7.135,1.771-12.409,5.313-15.823s8.778-5.121,15.708-5.121c2.926,0,5.633,0.476,8.124,1.425c2.489,0.95,4.401,2.221,5.736,3.812
		L426.681,196.184z"/>
	<path fill="#212529" d="M445.93,208.196c-1.335-0.411-2.592-0.911-3.773-1.502c-1.181-0.59-2.208-1.309-3.08-2.156
		c-0.874-0.847-1.554-1.873-2.041-3.08c-0.489-1.205-0.732-2.63-0.732-4.273c0-4.055,1.502-7.084,4.505-9.086
		s7.123-3.003,12.358-3.003c3.285,0,6.146,0.258,8.585,0.771c2.438,0.514,4.735,1.206,6.892,2.079l-3.234,7.776
		c-1.644-0.924-3.517-1.642-5.621-2.156c-2.105-0.512-4.312-0.77-6.622-0.77c-2.054,0-3.646,0.27-4.774,0.809
		c-1.13,0.539-1.694,1.348-1.694,2.426c0,0.924,0.424,1.682,1.271,2.271c0.847,0.591,2.168,1.143,3.966,1.655
		c0.358,0.154,0.847,0.334,1.463,0.539s1.271,0.411,1.963,0.616s1.36,0.397,2.002,0.577c0.642,0.181,1.194,0.321,1.656,0.424
		c1.334,0.411,2.591,0.885,3.773,1.424c1.18,0.539,2.207,1.232,3.08,2.079c0.872,0.848,1.565,1.9,2.079,3.157
		c0.512,1.259,0.77,2.76,0.77,4.505c0,4.157-1.501,7.276-4.504,9.355c-3.003,2.078-7.149,3.118-12.436,3.118
		c-3.542,0-6.545-0.283-9.009-0.847c-2.464-0.564-4.774-1.258-6.93-2.079l3.311-7.777c1.591,0.873,3.427,1.566,5.505,2.079
		c2.079,0.514,4.428,0.77,7.046,0.77c2.002,0,3.567-0.27,4.697-0.808c1.128-0.539,1.694-1.425,1.694-2.657
		c0-1.693-1.72-3.08-5.159-4.158L445.93,208.196z"/>
</g>
<g>
	<path fill="#555759" d="M506.875,175.573c3.944,0,7.446,0.453,10.506,1.359c3.06,0.907,5.644,2.347,7.752,4.318
		s3.717,4.533,4.828,7.684c1.11,3.151,1.666,6.971,1.666,11.458c0,4.67-0.669,8.568-2.006,11.696
		c-1.337,3.128-3.196,5.644-5.576,7.548s-5.202,3.254-8.466,4.046c-3.264,0.794-6.823,1.19-10.676,1.19h-12.988v-49.3H506.875z
		 M504.699,218.549c2.946,0,5.576-0.292,7.888-0.878c2.312-0.584,4.272-1.608,5.882-3.071c1.609-1.463,2.844-3.409,3.706-5.841
		c0.861-2.43,1.292-5.491,1.292-9.182c0-6.12-1.439-10.597-4.318-13.431c-2.879-2.832-6.994-4.25-12.342-4.25h-7.072v36.652H504.699
		z"/>
	<path fill="#555759" d="M569.026,224.94c-0.816,0.137-1.768,0.204-2.856,0.204c-1.813,0-3.253-0.294-4.318-0.884
		c-1.066-0.589-1.916-1.473-2.55-2.651c-1.224,1.088-2.822,2.039-4.794,2.855c-1.972,0.816-4.046,1.224-6.222,1.224
		c-2.268,0-4.138-0.283-5.61-0.85c-1.474-0.566-2.63-1.349-3.468-2.346c-0.839-0.997-1.417-2.131-1.734-3.4
		c-0.318-1.269-0.476-2.629-0.476-4.08c0-2.176,0.362-3.966,1.088-5.372c0.725-1.404,1.745-2.516,3.06-3.332
		c1.314-0.815,2.89-1.37,4.726-1.666c1.836-0.294,3.864-0.441,6.086-0.441c1.042,0,2.074,0.023,3.094,0.067
		c1.02,0.046,2.028,0.114,3.026,0.204v-1.632c0-1.36-0.114-2.504-0.34-3.434c-0.228-0.929-0.636-1.688-1.224-2.278
		c-0.59-0.589-1.36-1.02-2.312-1.292c-0.952-0.272-2.154-0.408-3.604-0.408c-1.996,0-3.899,0.238-5.712,0.714
		c-1.814,0.477-3.4,1.078-4.76,1.803l-1.7-4.896c1.858-0.906,4-1.677,6.426-2.312c2.425-0.635,4.998-0.952,7.718-0.952
		c2.493,0,4.59,0.237,6.29,0.714c1.7,0.476,3.06,1.281,4.08,2.414c1.02,1.134,1.756,2.607,2.21,4.42
		c0.453,1.813,0.68,4.058,0.68,6.731v11.492c0,1.588,0.272,2.664,0.816,3.23c0.544,0.567,1.336,0.85,2.38,0.85V224.94z
		 M551.822,209.505c-2.584,0-4.364,0.442-5.338,1.326c-0.975,0.884-1.462,2.21-1.462,3.978c0,1.769,0.385,3.117,1.156,4.046
		c0.77,0.93,2.152,1.395,4.148,1.395c1.224,0,2.55-0.283,3.978-0.851c1.428-0.565,2.686-1.302,3.774-2.21v-7.275
		c-1.088-0.227-2.142-0.351-3.162-0.374C553.896,209.517,552.864,209.505,551.822,209.505z"/>
	<path fill="#555759" d="M585.481,203.249c0.408,0.228,0.952,0.453,1.632,0.68c0.68,0.228,1.382,0.477,2.108,0.748l4.284,1.428
		c1.088,0.318,2.096,0.715,3.026,1.19c0.929,0.476,1.734,1.088,2.414,1.836c0.68,0.748,1.212,1.621,1.598,2.618
		c0.385,0.997,0.578,2.153,0.578,3.468c0,3.628-1.282,6.279-3.842,7.956c-2.562,1.678-6.177,2.516-10.846,2.516
		c-2.584,0-4.964-0.215-7.14-0.646c-2.176-0.431-4.148-1.03-5.916-1.802l2.38-5.576c1.36,0.771,2.935,1.359,4.726,1.768
		c1.791,0.408,3.774,0.612,5.95,0.612c2.04,0,3.75-0.282,5.134-0.85c1.382-0.566,2.074-1.643,2.074-3.23
		c0-1.768-1.452-3.219-4.352-4.352c-1.315-0.408-2.698-0.839-4.148-1.292c-1.452-0.453-2.788-0.906-4.012-1.36
		c-1.043-0.362-1.995-0.793-2.856-1.292c-0.862-0.498-1.622-1.099-2.278-1.802c-0.658-0.702-1.168-1.53-1.53-2.482
		c-0.363-0.952-0.544-2.085-0.544-3.399c0-1.769,0.374-3.299,1.122-4.591s1.768-2.356,3.06-3.195s2.81-1.45,4.556-1.836
		c1.745-0.385,3.614-0.578,5.61-0.578c2.72,0,5.1,0.216,7.14,0.646c2.04,0.432,3.853,0.964,5.44,1.599l-2.38,5.508
		c-2.901-1.405-6.301-2.108-10.2-2.108c-2.448,0-4.25,0.34-5.406,1.021c-1.156,0.68-1.734,1.609-1.734,2.788
		c0,0.907,0.34,1.655,1.02,2.243C582.83,202.07,583.94,202.66,585.481,203.249z"/>
	<path fill="#555759" d="M630.769,224.873v-20.925c0-1.136-0.068-2.204-0.204-3.204c-0.136-0.998-0.408-1.862-0.816-2.589
		c-0.408-0.727-0.998-1.295-1.768-1.704c-0.771-0.409-1.791-0.614-3.06-0.614c-1.451,0-2.777,0.182-3.978,0.545
		c-1.202,0.363-2.256,0.864-3.162,1.5l-1.36,0.886v26.105h-7.684v-50.864l7.684-0.952v19.652c1.042-0.725,2.176-1.246,3.4-1.564
		c2.628-0.906,5.077-1.359,7.344-1.359c2.267,0,4.125,0.284,5.576,0.852c1.45,0.567,2.595,1.386,3.434,2.452
		c0.838,1.068,1.416,2.374,1.734,3.918c0.316,1.545,0.476,3.316,0.476,5.314v22.552H630.769z"/>
	<path fill="#555759" d="M662.321,225.688c-1.723,0-3.264-0.227-4.624-0.68c-0.635-0.136-1.258-0.328-1.87-0.578
		c-0.612-0.248-1.236-0.555-1.87-0.918l-0.612,1.36h-5.644v-50.864l7.684-0.952v19.108l2.924-1.36
		c0.906-0.316,1.88-0.566,2.924-0.748c1.042-0.181,2.153-0.271,3.332-0.271c4.851,0,8.432,1.52,10.744,4.556
		c2.312,3.038,3.468,7.254,3.468,12.648c0,2.72-0.295,5.225-0.884,7.514c-0.59,2.29-1.542,4.262-2.856,5.916
		c-1.315,1.655-3.016,2.947-5.1,3.876C667.851,225.224,665.313,225.688,662.321,225.688z M657.357,219.569
		c0.634,0.182,1.269,0.329,1.904,0.441c0.634,0.114,1.269,0.17,1.904,0.17c2.992,0,5.36-0.974,7.106-2.924
		c1.745-1.948,2.618-5.236,2.618-9.86c0-1.768-0.16-3.388-0.476-4.861c-0.318-1.473-0.816-2.73-1.496-3.774
		c-0.68-1.042-1.576-1.858-2.686-2.448c-1.111-0.588-2.482-0.884-4.114-0.884c-1.95,0-3.56,0.386-4.828,1.156
		c-0.635,0.363-1.27,0.794-1.904,1.292v20.74c0.362,0.182,0.691,0.363,0.986,0.544C656.666,219.343,656.994,219.479,657.357,219.569
		z"/>
	<path fill="#555759" d="M699.584,225.688c-3.083,0-5.633-0.407-7.65-1.224c-2.018-0.816-3.627-2.006-4.828-3.57
		c-1.202-1.563-2.052-3.468-2.55-5.712c-0.499-2.244-0.748-4.771-0.748-7.582c0-6.074,1.371-10.562,4.114-13.464
		c2.742-2.9,7.174-4.352,13.294-4.352c2.992,0,5.508,0.419,7.548,1.258c2.04,0.839,3.672,2.04,4.896,3.604
		c1.224,1.564,2.097,3.469,2.618,5.713c0.521,2.243,0.782,4.771,0.782,7.581c0,6.076-1.406,10.552-4.216,13.431
		C710.033,224.25,705.613,225.688,699.584,225.688z M699.584,220.249c1.858,0,3.411-0.272,4.658-0.816
		c1.247-0.544,2.244-1.359,2.992-2.447c0.748-1.089,1.269-2.437,1.564-4.047c0.294-1.608,0.442-3.479,0.442-5.609
		c0-1.632-0.114-3.196-0.34-4.692c-0.228-1.496-0.646-2.799-1.258-3.91c-0.612-1.11-1.428-1.994-2.448-2.651
		s-2.346-0.986-3.978-0.986c-1.859,0-3.4,0.284-4.624,0.85c-1.224,0.567-2.21,1.406-2.958,2.517
		c-0.748,1.111-1.27,2.481-1.564,4.114c-0.295,1.632-0.442,3.514-0.442,5.644c0,1.678,0.102,3.241,0.306,4.692
		c0.204,1.451,0.6,2.72,1.19,3.808c0.588,1.088,1.404,1.949,2.448,2.584C696.615,219.933,697.952,220.249,699.584,220.249z"/>
	<path fill="#555759" d="M753.779,224.94c-0.816,0.137-1.768,0.204-2.856,0.204c-1.813,0-3.253-0.294-4.318-0.884
		c-1.066-0.589-1.916-1.473-2.55-2.651c-1.224,1.088-2.822,2.039-4.794,2.855c-1.972,0.816-4.046,1.224-6.222,1.224
		c-2.268,0-4.138-0.283-5.61-0.85c-1.474-0.566-2.63-1.349-3.468-2.346c-0.839-0.997-1.417-2.131-1.734-3.4
		c-0.318-1.269-0.476-2.629-0.476-4.08c0-2.176,0.362-3.966,1.088-5.372c0.725-1.404,1.745-2.516,3.06-3.332
		c1.314-0.815,2.89-1.37,4.726-1.666c1.836-0.294,3.864-0.441,6.086-0.441c1.042,0,2.074,0.023,3.094,0.067
		c1.02,0.046,2.028,0.114,3.026,0.204v-1.632c0-1.36-0.114-2.504-0.34-3.434c-0.227-0.929-0.635-1.688-1.224-2.278
		c-0.59-0.589-1.36-1.02-2.312-1.292c-0.952-0.272-2.154-0.408-3.604-0.408c-1.996,0-3.899,0.238-5.712,0.714
		c-1.814,0.477-3.4,1.078-4.76,1.803l-1.7-4.896c1.858-0.906,4-1.677,6.426-2.312c2.425-0.635,4.998-0.952,7.718-0.952
		c2.493,0,4.59,0.237,6.29,0.714c1.7,0.476,3.06,1.281,4.08,2.414c1.02,1.134,1.756,2.607,2.21,4.42
		c0.453,1.813,0.68,4.058,0.68,6.731v11.492c0,1.588,0.272,2.664,0.816,3.23c0.544,0.567,1.336,0.85,2.38,0.85V224.94z
		 M736.576,209.505c-2.584,0-4.364,0.442-5.338,1.326c-0.975,0.884-1.462,2.21-1.462,3.978c0,1.769,0.385,3.117,1.156,4.046
		c0.77,0.93,2.152,1.395,4.148,1.395c1.224,0,2.55-0.283,3.978-0.851c1.428-0.565,2.686-1.302,3.774-2.21v-7.275
		c-1.088-0.227-2.142-0.351-3.162-0.374C738.649,209.517,737.618,209.505,736.576,209.505z"/>
	<path fill="#555759" d="M766.427,190.601l0.476,4.148c1.133-1.45,2.38-2.471,3.74-3.061c2.266-1.269,4.578-1.903,6.936-1.903
		c1.088,0,2.085,0.103,2.992,0.309c0.906,0.206,1.654,0.424,2.244,0.653l-1.904,6.313c-1.133-0.634-2.539-0.951-4.216-0.951
		c-1.995,0-3.832,0.564-5.508,1.695c-0.59,0.362-1.146,0.759-1.666,1.188c-0.522,0.43-1.054,0.916-1.598,1.458v24.423h-7.616
		v-24.685l-0.952-9.588H766.427z"/>
	<path fill="#555759" d="M797.91,225.688c-4.987,0-8.602-1.506-10.846-4.521c-2.244-3.015-3.366-7.242-3.366-12.682
		c0-2.721,0.294-5.225,0.884-7.515c0.588-2.288,1.541-4.261,2.856-5.916c1.314-1.654,3.014-2.946,5.1-3.876
		c2.084-0.929,4.624-1.394,7.616-1.394c1.723,0,3.241,0.228,4.556,0.68c0.408,0.092,0.804,0.216,1.19,0.374
		c0.385,0.159,0.782,0.329,1.19,0.51v-17.34l7.616-0.952v42.84l0.612,8.977h-6.664l-0.612-2.244
		c-1.134,0.816-2.426,1.52-3.876,2.108c-0.952,0.363-1.938,0.611-2.958,0.748C800.188,225.621,799.088,225.688,797.91,225.688z
		 M805.118,195.905c-0.636-0.181-1.27-0.329-1.904-0.442c-0.635-0.112-1.27-0.17-1.904-0.17c-3.038,0-5.417,0.976-7.14,2.924
		c-1.723,1.95-2.584,5.26-2.584,9.928c0,1.769,0.146,3.378,0.442,4.828c0.294,1.451,0.782,2.71,1.462,3.774
		c0.68,1.065,1.574,1.894,2.686,2.481c1.11,0.59,2.482,0.885,4.114,0.885c1.858,0,3.468-0.408,4.828-1.225
		c0.362-0.227,0.69-0.452,0.986-0.68c0.294-0.227,0.623-0.477,0.986-0.748v-20.536c-0.363-0.227-0.691-0.419-0.986-0.578
		C805.809,196.188,805.48,196.041,805.118,195.905z"/>
</g>
<g>
	<g>
		<path fill="#4D4DDB" d="M68.976-380.21h34.022v-23.879c0-4.318-0.326-7.959-0.975-10.912c-0.647-2.953-1.75-5.348-3.303-7.174
			c-1.55-1.824-3.62-3.156-6.213-3.984c-2.591-0.83-5.83-1.246-9.718-1.246h-0.601H68.976V-380.21z"/>
		<polygon fill="#FF7900" points="59.573,-380.21 59.573,-427.405 45.643,-427.405 40.456,-427.405 3,-427.405 3,-395.354 
			3,-380.21 		"/>
		<path fill="#207589" d="M34.377-370.812H3v20.092c0,4.318,0.319,7.955,0.969,10.912c0.647,2.953,1.749,5.346,3.306,7.168
			c1.553,1.83,3.623,3.158,6.215,3.988c2.589,0.83,5.83,1.246,9.714,1.246h0.603h10.571V-370.812z"/>
		<polygon fill="#D82121" points="43.775,-370.812 43.775,-327.405 60.351,-327.405 65.539,-327.405 102.998,-327.405 
			102.998,-359.456 102.998,-370.812 		"/>
	</g>
</g>
<text transform="matrix(1 0 0 1 121.6104 -346.7871)"><tspan x="0" y="0" fill="#212529" font-family="'LGSmHaB'" font-size="77" letter-spacing="-1">In</tspan><tspan x="63.754" y="0" fill="#212529" font-family="'LGSmHaB'" font-size="77" letter-spacing="-1">tel</tspan><tspan x="157.925" y="0" fill="#212529" font-family="'LGSmHaB'" font-size="77">lyt</tspan><tspan x="254.482" y="0" fill="#212529" font-family="'LGSmHaB'" font-size="77" letter-spacing="-1">ics</tspan><tspan x="348.575" y="0" fill="#212529" font-family="'LGSmHaB'" font-size="77" letter-spacing="-1"> </tspan><tspan x="368.595" y="0" fill="#212529" font-family="'LGSmHaB'" font-size="77" letter-spacing="-1">D</tspan><tspan x="424.497" y="0" fill="#212529" font-family="'LGSmHaB'" font-size="77">ash</tspan><tspan x="548.388" y="0" fill="#212529" font-family="'LGSmHaB'" font-size="77" letter-spacing="-1">bo</tspan><tspan x="635.166" y="0" fill="#212529" font-family="'LGSmHaB'" font-size="77">a</tspan><tspan x="676.591" y="0" fill="#212529" font-family="'LGSmHaB'" font-size="77" letter-spacing="-2">rd</tspan><tspan x="748.201" y="0" fill="#212529" font-family="'LGSmHaB'" font-size="77" letter-spacing="-1"> </tspan></text>
<g>
	<g>
		<path fill="#4D4DDB" d="M68.976-504.21h34.022v-23.879c0-4.318-0.326-7.959-0.975-10.912c-0.647-2.953-1.75-5.348-3.303-7.174
			c-1.55-1.824-3.62-3.156-6.213-3.984c-2.591-0.83-5.83-1.246-9.718-1.246h-0.601H68.976V-504.21z"/>
		<polygon fill="#FF7900" points="59.573,-504.21 59.573,-551.405 45.643,-551.405 40.456,-551.405 3,-551.405 3,-519.354 
			3,-504.21 		"/>
		<path fill="#207589" d="M34.377-494.812H3v20.092c0,4.318,0.319,7.955,0.969,10.912c0.647,2.953,1.749,5.346,3.306,7.168
			c1.553,1.83,3.623,3.158,6.215,3.988c2.589,0.83,5.83,1.246,9.714,1.246h0.603h10.571V-494.812z"/>
		<polygon fill="#D82121" points="43.775,-494.812 43.775,-451.405 60.351,-451.405 65.539,-451.405 102.998,-451.405 
			102.998,-483.456 102.998,-494.812 		"/>
	</g>
</g>
<text transform="matrix(1 0 0 1 121.6104 -470.7871)"><tspan x="0" y="0" fill="#FFFFFF" font-family="'LGSmHaB'" font-size="77" letter-spacing="-1">In</tspan><tspan x="63.754" y="0" fill="#FFFFFF" font-family="'LGSmHaB'" font-size="77" letter-spacing="-1">tel</tspan><tspan x="157.925" y="0" fill="#FFFFFF" font-family="'LGSmHaB'" font-size="77">lyt</tspan><tspan x="254.482" y="0" fill="#FFFFFF" font-family="'LGSmHaB'" font-size="77" letter-spacing="-1">ics</tspan><tspan x="348.575" y="0" fill="#FFFFFF" font-family="'LGSmHaB'" font-size="77" letter-spacing="-1"> </tspan><tspan x="368.595" y="0" fill="#FFFFFF" font-family="'LGSmHaB'" font-size="77" letter-spacing="-1">D</tspan><tspan x="424.497" y="0" fill="#FFFFFF" font-family="'LGSmHaB'" font-size="77">ash</tspan><tspan x="548.388" y="0" fill="#FFFFFF" font-family="'LGSmHaB'" font-size="77" letter-spacing="-1">bo</tspan><tspan x="635.166" y="0" fill="#FFFFFF" font-family="'LGSmHaB'" font-size="77">a</tspan><tspan x="676.591" y="0" fill="#FFFFFF" font-family="'LGSmHaB'" font-size="77" letter-spacing="-2">rd</tspan><tspan x="748.201" y="0" fill="#FFFFFF" font-family="'LGSmHaB'" font-size="77" letter-spacing="-1"> </tspan></text>
<g>
	<g>
		<path fill="#4D4DDB" d="M68.976-238.21h34.022v-23.879c0-4.318-0.326-7.959-0.975-10.912c-0.647-2.953-1.75-5.348-3.303-7.174
			c-1.55-1.824-3.62-3.156-6.213-3.984c-2.591-0.83-5.83-1.246-9.718-1.246h-0.601H68.976V-238.21z"/>
		<polygon fill="#FF7900" points="59.573,-238.21 59.573,-285.405 45.643,-285.405 40.456,-285.405 3,-285.405 3,-253.354 
			3,-238.21 		"/>
		<path fill="#207589" d="M34.377-228.812H3v20.092c0,4.318,0.319,7.955,0.969,10.912c0.647,2.953,1.749,5.346,3.306,7.168
			c1.553,1.83,3.623,3.158,6.215,3.988c2.589,0.83,5.83,1.246,9.714,1.246h0.603h10.571V-228.812z"/>
		<polygon fill="#D82121" points="43.775,-228.812 43.775,-185.405 60.351,-185.405 65.539,-185.405 102.998,-185.405 
			102.998,-217.456 102.998,-228.812 		"/>
	</g>
</g>
<text transform="matrix(1 0 0 1 121.6104 -204.7871)"><tspan x="0" y="0" fill="#212529" font-family="'LGSmHaB'" font-size="77" letter-spacing="-1">In</tspan><tspan x="63.754" y="0" fill="#212529" font-family="'LGSmHaB'" font-size="77" letter-spacing="-1">tel</tspan><tspan x="157.925" y="0" fill="#212529" font-family="'LGSmHaB'" font-size="77">lyt</tspan><tspan x="254.482" y="0" fill="#212529" font-family="'LGSmHaB'" font-size="77" letter-spacing="-1">ics</tspan></text>
<text transform="matrix(1 0 0 1 486.6108 -204.7871)"><tspan x="0" y="0" fill="#555759" font-family="'LGSmHaSB'" font-size="68">D</tspan><tspan x="48.075" y="0" fill="#555759" font-family="'LGSmHaSB'" font-size="68" letter-spacing="1">ash</tspan><tspan x="156.806" y="0" fill="#555759" font-family="'LGSmHaSB'" font-size="68">bo</tspan><tspan x="232.829" y="0" fill="#555759" font-family="'LGSmHaSB'" font-size="68" letter-spacing="1">a</tspan><tspan x="269.208" y="0" fill="#555759" font-family="'LGSmHaSB'" font-size="68" letter-spacing="-1">rd </tspan></text>
<rect x="512.504" y="-133.679" fill="#404040" width="78.806" height="74.021"/>
</svg>
