<?xml version="1.0" encoding="utf-8"?>
<!-- Generator: Adobe Illustrator 16.0.0, SVG Export Plug-In . SVG Version: 6.00 Build 0)  -->
<!DOCTYPE svg PUBLIC "-//W3C//DTD SVG 1.1//EN" "http://www.w3.org/Graphics/SVG/1.1/DTD/svg11.dtd">
<svg version="1.1" id="Layer_1" xmlns="http://www.w3.org/2000/svg" xmlns:xlink="http://www.w3.org/1999/xlink" x="0px" y="0px"
	 width="875.043px" height="105.189px" viewBox="0 0 875.043 105.189" enable-background="new 0 0 875.043 105.189"
	 xml:space="preserve">
<g id="Plada">
</g>
<g id="Plada_1_">
</g>
<g id="PLADA">
</g>
<g>
	<g>
		<path fill="#4D4DDB" d="M68.976,49.79h34.022V25.911c0-4.318-0.326-7.959-0.975-10.912c-0.647-2.953-1.75-5.348-3.303-7.174
			c-1.55-1.824-3.62-3.156-6.213-3.984c-2.591-0.83-5.83-1.246-9.718-1.246h-0.601H68.976V49.79z"/>
		<polygon fill="#FF7900" points="59.573,49.79 59.573,2.595 45.643,2.595 40.456,2.595 3,2.595 3,34.646 3,49.79 		"/>
		<path fill="#207589" d="M34.377,59.188H3V79.28c0,4.318,0.319,7.955,0.969,10.912c0.647,2.953,1.749,5.346,3.306,7.168
			c1.553,1.83,3.623,3.158,6.215,3.988c2.589,0.83,5.83,1.246,9.714,1.246h0.603h10.571V59.188z"/>
		<polygon fill="#D82121" points="43.775,59.188 43.775,102.595 60.351,102.595 65.539,102.595 102.998,102.595 102.998,70.544 
			102.998,59.188 		"/>
	</g>
</g>
<g>
	<g>
		<path fill="#404040" d="M127.54,27.003h11.242v55.825H127.54V27.003z"/>
		<path fill="#404040" d="M146.865,44.02h10.318l0.231,2.695c1.334-0.872,2.746-1.565,4.235-2.079c3.08-1.026,5.877-1.54,8.393-1.54
			c2.515,0,4.582,0.321,6.198,0.963c1.617,0.643,2.913,1.54,3.889,2.694c0.975,1.155,1.656,2.58,2.041,4.274
			c0.385,1.693,0.578,3.568,0.578,5.62v26.181h-11.011V59.152c0-0.97-0.039-1.901-0.115-2.796c-0.077-0.894-0.296-1.673-0.655-2.337
			c-0.359-0.665-0.898-1.2-1.617-1.609c-0.72-0.409-1.694-0.613-2.926-0.613c-1.797,0-3.337,0.229-4.62,0.689
			c-1.232,0.512-2.285,1.048-3.157,1.609v28.732h-11.011V54.415L146.865,44.02z"/>
		<path fill="#404040" d="M192.911,36.782l11.011-2.002v9.239h13.321v8.085h-13.321v15.862c0,0.976,0.039,1.899,0.115,2.772
			c0.077,0.873,0.282,1.644,0.616,2.31c0.333,0.668,0.847,1.207,1.54,1.617c0.693,0.411,1.629,0.616,2.811,0.616
			c1.59,0,3.028-0.166,4.312-0.501c1.282-0.333,2.514-0.809,3.696-1.425l1.694,7.238c-3.953,2.105-8.368,3.157-13.244,3.157
			c-2.568,0-4.659-0.321-6.276-0.963c-1.617-0.641-2.887-1.54-3.812-2.694c-0.924-1.155-1.553-2.566-1.886-4.235
			c-0.334-1.668-0.5-3.528-0.5-5.582V52.104h-6.622v-7.16l6.545-0.771V36.782z"/>
		<path fill="#404040" d="M232.874,66.042c0,2.618,0.513,4.801,1.54,6.545c1.386,2.26,4.158,3.388,8.316,3.388
			c1.54,0,2.899-0.102,4.081-0.308c1.18-0.205,2.258-0.462,3.234-0.771c0.975-0.308,1.887-0.654,2.733-1.039
			c0.847-0.385,1.681-0.757,2.503-1.116l2.079,6.853c-0.77,0.462-1.759,0.95-2.964,1.463c-1.207,0.514-2.541,0.963-4.004,1.348
			s-3.003,0.706-4.62,0.963c-1.617,0.256-3.222,0.385-4.813,0.385c-7.136,0-12.166-1.72-15.092-5.159
			c-2.875-3.49-4.312-8.624-4.312-15.399c0-13.398,6.416-20.098,19.25-20.098c3.542,0,6.429,0.476,8.663,1.425
			c2.233,0.95,3.978,2.271,5.236,3.966c1.257,1.693,2.118,3.695,2.58,6.006c0.462,2.31,0.693,4.851,0.693,7.623v3.927H232.874z
			 M246.58,58.881c0-2.771-0.45-4.915-1.348-6.43c-0.898-1.514-2.425-2.271-4.582-2.271c-2.464,0-4.312,0.604-5.544,1.81
			c-1.232,1.207-1.925,2.965-2.079,5.274c-0.051,0.258-0.077,0.514-0.077,0.771s0,0.539,0,0.847H246.58z"/>
		<path fill="#404040" d="M264.213,25.386l10.934-1.463V70.2c0,1.182,0.077,2.117,0.231,2.811c0.154,0.692,0.397,1.22,0.731,1.578
			c0.333,0.359,0.782,0.591,1.347,0.693c0.564,0.104,1.283,0.153,2.156,0.153v7.623c-0.154,0.052-0.462,0.077-0.924,0.077
			c-0.308,0.103-0.643,0.154-1.001,0.154h-0.924c-2.362,0-4.351-0.281-5.967-0.847c-1.617-0.564-2.914-1.398-3.889-2.503
			c-0.976-1.104-1.669-2.451-2.079-4.043c-0.411-1.59-0.616-3.413-0.616-5.467V25.386z"/>
		<path fill="#404040" d="M283.924,25.386l10.934-1.463V70.2c0,1.182,0.077,2.117,0.231,2.811c0.154,0.692,0.397,1.22,0.731,1.578
			c0.333,0.359,0.782,0.591,1.347,0.693c0.564,0.104,1.283,0.153,2.156,0.153v7.623c-0.154,0.052-0.462,0.077-0.924,0.077
			c-0.308,0.103-0.643,0.154-1.001,0.154h-0.924c-2.362,0-4.351-0.281-5.967-0.847c-1.617-0.564-2.914-1.398-3.889-2.503
			c-0.976-1.104-1.669-2.451-2.079-4.043c-0.411-1.59-0.616-3.413-0.616-5.467V25.386z"/>
		<path fill="#404040" d="M300.787,44.02h12.166l8.008,24.948h0.847l7.7-24.948h11.165L325.35,84.676
			c-0.924,2.412-1.887,4.62-2.888,6.622s-2.208,3.708-3.619,5.12c-1.413,1.412-3.093,2.515-5.043,3.312
			c-1.952,0.795-4.339,1.193-7.161,1.193c-0.924,0-1.887-0.038-2.888-0.115s-1.938-0.27-2.811-0.578l1.386-7.392
			c1.128,0.256,2.207,0.385,3.234,0.385c1.898,0,3.362-0.296,4.389-0.886c1.026-0.59,1.771-1.271,2.233-2.04
			c0.718-0.821,1.411-2.079,2.079-3.773c0.667-1.693,1.309-3.361,1.925-5.005L300.787,44.02z"/>
		<path fill="#404040" d="M348.757,36.782l11.011-2.002v9.239h13.321v8.085h-13.321v15.862c0,0.976,0.039,1.899,0.115,2.772
			c0.077,0.873,0.282,1.644,0.616,2.31c0.333,0.668,0.847,1.207,1.54,1.617c0.693,0.411,1.629,0.616,2.811,0.616
			c1.59,0,3.028-0.166,4.312-0.501c1.282-0.333,2.514-0.809,3.696-1.425l1.694,7.238c-3.953,2.105-8.368,3.157-13.244,3.157
			c-2.568,0-4.659-0.321-6.276-0.963c-1.617-0.641-2.887-1.54-3.812-2.694c-0.924-1.155-1.553-2.566-1.886-4.235
			c-0.334-1.668-0.5-3.528-0.5-5.582V52.104h-6.622v-7.16l6.545-0.771V36.782z"/>
		<path fill="#404040" d="M380.481,27.003h11.165v8.854h-11.165V27.003z M380.558,44.02h11.011v38.809h-11.011V44.02z"/>
		<path fill="#404040" d="M426.681,54.184c-1.078-1.282-2.246-2.181-3.503-2.694c-1.258-0.513-2.683-0.771-4.273-0.771
			c-3.388,0-5.865,1.015-7.431,3.042c-1.566,2.028-2.348,5.455-2.348,10.279c0,3.85,0.68,6.827,2.041,8.932
			c1.359,2.105,3.812,3.157,7.354,3.157c2.31,0,4.312-0.256,6.006-0.77c1.694-0.513,3.438-1.232,5.236-2.156l2.002,7.007
			c-1.386,0.976-3.324,1.81-5.813,2.502c-2.49,0.693-5.352,1.04-8.585,1.04c-3.542,0-6.545-0.424-9.009-1.271
			c-2.464-0.847-4.466-2.104-6.006-3.773c-1.54-1.667-2.656-3.721-3.349-6.159c-0.693-2.438-1.04-5.275-1.04-8.509
			c0-7.135,1.771-12.409,5.313-15.823s8.778-5.121,15.708-5.121c2.926,0,5.633,0.476,8.124,1.425
			c2.489,0.95,4.401,2.221,5.736,3.812L426.681,54.184z"/>
		<path fill="#404040" d="M445.93,66.196c-1.335-0.411-2.592-0.911-3.773-1.502c-1.181-0.59-2.208-1.309-3.08-2.156
			c-0.874-0.847-1.554-1.873-2.041-3.08c-0.489-1.205-0.732-2.63-0.732-4.273c0-4.055,1.502-7.084,4.505-9.086
			s7.123-3.003,12.358-3.003c3.285,0,6.146,0.258,8.585,0.771c2.438,0.514,4.735,1.206,6.892,2.079l-3.234,7.776
			c-1.644-0.924-3.517-1.642-5.621-2.156c-2.105-0.512-4.312-0.77-6.622-0.77c-2.054,0-3.646,0.27-4.774,0.809
			c-1.13,0.539-1.694,1.348-1.694,2.426c0,0.924,0.424,1.682,1.271,2.271c0.847,0.591,2.168,1.143,3.966,1.655
			c0.358,0.154,0.847,0.334,1.463,0.539s1.271,0.411,1.963,0.616s1.36,0.397,2.002,0.577c0.642,0.181,1.194,0.321,1.656,0.424
			c1.334,0.411,2.591,0.885,3.773,1.424c1.18,0.539,2.207,1.232,3.08,2.079c0.872,0.848,1.565,1.9,2.079,3.157
			c0.512,1.259,0.77,2.76,0.77,4.505c0,4.157-1.501,7.276-4.504,9.355c-3.003,2.078-7.149,3.118-12.436,3.118
			c-3.542,0-6.545-0.283-9.009-0.847c-2.464-0.564-4.774-1.258-6.93-2.079l3.311-7.777c1.591,0.873,3.427,1.566,5.505,2.079
			c2.079,0.514,4.428,0.77,7.046,0.77c2.002,0,3.567-0.27,4.697-0.808c1.128-0.539,1.694-1.425,1.694-2.657
			c0-1.693-1.72-3.08-5.159-4.158L445.93,66.196z"/>
		<path fill="#404040" d="M496.134,27.003h18.095c4.62,0,8.727,0.514,12.32,1.54c3.592,1.027,6.634,2.656,9.124,4.89
			c2.489,2.232,4.376,5.134,5.66,8.701c1.283,3.568,1.925,7.893,1.925,12.974c0,5.236-0.797,9.625-2.387,13.167
			c-1.592,3.542-3.786,6.392-6.583,8.548c-2.798,2.155-6.096,3.695-9.895,4.619c-3.799,0.925-7.906,1.387-12.32,1.387h-15.939
			V27.003z M507.376,35.704v38.423h4.235c3.08,0,5.852-0.321,8.316-0.966c2.464-0.644,4.543-1.739,6.237-3.286
			c1.694-1.546,3.003-3.595,3.927-6.146c0.924-2.551,1.386-5.76,1.386-9.626c0-6.338-1.553-10.989-4.659-13.954
			c-3.106-2.963-7.38-4.445-12.82-4.445H507.376z"/>
		<path fill="#404040" d="M549.957,47.1c2.052-1.128,4.582-2.079,7.584-2.849c3.003-0.771,6.044-1.155,9.125-1.155
			c3.028,0,5.556,0.27,7.584,0.809c2.027,0.539,3.657,1.438,4.89,2.695c1.232,1.258,2.104,2.939,2.618,5.043
			c0.513,2.105,0.77,4.697,0.77,7.777v12.012c0,1.54,0.308,2.593,0.924,3.157c0.616,0.565,1.513,0.847,2.695,0.847v7.393
			c-0.976,0.205-2.31,0.308-4.004,0.308c-2.208,0-4.031-0.308-5.467-0.924c-1.438-0.616-2.593-1.591-3.465-2.926
			c-1.438,1.335-3.234,2.413-5.39,3.233c-2.156,0.821-4.209,1.232-6.16,1.232c-2.824,0-5.109-0.347-6.853-1.04
			c-1.746-0.692-3.093-1.604-4.042-2.733c-0.951-1.128-1.579-2.425-1.887-3.888c-0.308-1.464-0.462-2.99-0.462-4.582
			c0-2.566,0.41-4.671,1.232-6.313c0.82-1.643,1.989-2.927,3.503-3.851c1.514-0.924,3.35-1.565,5.505-1.925
			c2.156-0.358,4.543-0.539,7.161-0.539c0.873,0,1.822,0.014,2.849,0.038c1.026,0.027,1.95,0.065,2.772,0.116v-1.771
			c0-2.156-0.591-3.772-1.771-4.851c-1.182-1.078-3.106-1.617-5.775-1.617c-2.208,0-4.312,0.27-6.314,0.809
			s-3.825,1.271-5.467,2.194L549.957,47.1z M571.44,66.272c-0.976-0.102-1.925-0.166-2.849-0.192
			c-0.924-0.025-1.823-0.038-2.695-0.038c-2.31,0-3.915,0.437-4.813,1.309c-0.899,0.874-1.348,2.105-1.348,3.696
			c0,1.694,0.32,2.991,0.962,3.889c0.642,0.898,1.887,1.348,3.735,1.348c0.924,0,2.065-0.192,3.426-0.578
			c1.359-0.385,2.553-1.064,3.581-2.04V66.272z"/>
		<path fill="#404040" d="M600.083,66.196c-1.335-0.411-2.592-0.911-3.773-1.502c-1.181-0.59-2.208-1.309-3.08-2.156
			c-0.874-0.847-1.554-1.873-2.041-3.08c-0.489-1.205-0.732-2.63-0.732-4.273c0-4.055,1.502-7.084,4.505-9.086
			s7.123-3.003,12.358-3.003c3.285,0,6.146,0.258,8.585,0.771c2.438,0.514,4.735,1.206,6.892,2.079l-3.234,7.776
			c-1.644-0.924-3.517-1.642-5.621-2.156c-2.105-0.512-4.312-0.77-6.622-0.77c-2.054,0-3.646,0.27-4.774,0.809
			c-1.13,0.539-1.694,1.348-1.694,2.426c0,0.924,0.424,1.682,1.271,2.271c0.847,0.591,2.168,1.143,3.966,1.655
			c0.358,0.154,0.847,0.334,1.463,0.539s1.271,0.411,1.963,0.616s1.36,0.397,2.002,0.577c0.642,0.181,1.194,0.321,1.656,0.424
			c1.334,0.411,2.591,0.885,3.773,1.424c1.18,0.539,2.207,1.232,3.08,2.079c0.872,0.848,1.565,1.9,2.079,3.157
			c0.513,1.259,0.77,2.76,0.77,4.505c0,4.157-1.501,7.276-4.504,9.355c-3.003,2.078-7.149,3.118-12.436,3.118
			c-3.542,0-6.545-0.283-9.009-0.847c-2.464-0.564-4.774-1.258-6.93-2.079l3.311-7.777c1.591,0.873,3.427,1.566,5.505,2.079
			c2.079,0.514,4.428,0.77,7.046,0.77c2.002,0,3.567-0.27,4.697-0.808c1.128-0.539,1.694-1.425,1.694-2.657
			c0-1.693-1.72-3.08-5.159-4.158L600.083,66.196z"/>
		<path fill="#404040" d="M630.268,25.386l11.011-1.463v22.176c0.513-0.256,1.026-0.513,1.54-0.77
			c0.513-0.257,1.052-0.487,1.617-0.693c1.386-0.513,2.797-0.897,4.235-1.155c1.437-0.256,2.797-0.385,4.081-0.385
			c2.515,0,4.582,0.322,6.198,0.965c1.617,0.643,2.913,1.556,3.889,2.738c0.975,1.185,1.656,2.598,2.041,4.244
			c0.385,1.646,0.578,3.497,0.578,5.555v26.23h-11.011V59.094c0-0.972-0.039-1.894-0.115-2.765
			c-0.077-0.871-0.296-1.639-0.655-2.306c-0.359-0.665-0.898-1.203-1.617-1.611c-0.72-0.409-1.694-0.615-2.926-0.615
			c-1.797,0-3.337,0.231-4.62,0.691c-1.335,0.563-2.413,1.127-3.234,1.689v28.65h-11.011V25.386z"/>
		<path fill="#404040" d="M674.388,25.386l11.011-1.463v21.483c0.924-0.513,1.719-0.897,2.387-1.155
			c2.207-0.771,4.645-1.155,7.315-1.155c5.492,0,9.56,1.721,12.205,5.159c2.643,3.439,3.965,8.111,3.965,14.014
			c0,3.132-0.334,6.02-1.001,8.663c-0.668,2.645-1.746,4.916-3.234,6.814c-1.49,1.899-3.427,3.376-5.813,4.428
			c-2.387,1.051-5.274,1.578-8.663,1.578c-1.9,0-3.619-0.258-5.159-0.771c-1.438-0.358-2.798-1.001-4.081-1.925l-0.77,1.771h-8.162
			V25.386z M685.398,74.896l1.386,0.539c1.282,0.462,2.541,0.693,3.773,0.693c1.334,0,2.58-0.218,3.734-0.654
			c1.155-0.436,2.143-1.155,2.964-2.156c0.821-1.001,1.463-2.335,1.925-4.004c0.462-1.668,0.693-3.734,0.693-6.198
			c0-8.213-2.849-12.32-8.547-12.32c-1.694,0-3.261,0.437-4.697,1.309c-0.411,0.206-0.822,0.514-1.232,0.925V74.896z"/>
		<path fill="#404040" d="M715.814,63.27c0-6.775,1.617-11.831,4.851-15.169c3.234-3.336,8.393-5.005,15.477-5.005
			c3.593,0,6.584,0.476,8.971,1.425c2.387,0.95,4.299,2.31,5.736,4.081c1.437,1.771,2.464,3.927,3.08,6.468
			c0.616,2.541,0.924,5.403,0.924,8.586c0,6.775-1.63,11.819-4.89,15.13c-3.261,3.312-8.458,4.967-15.593,4.967
			c-3.593,0-6.583-0.476-8.97-1.425c-2.387-0.949-4.287-2.31-5.698-4.081c-1.412-1.771-2.413-3.913-3.003-6.43
			C716.108,69.303,715.814,66.453,715.814,63.27z M736.142,50.488c-3.542,0-5.942,1.129-7.199,3.388
			c-1.258,2.26-1.887,5.621-1.887,10.087c0,1.694,0.103,3.286,0.308,4.774c0.205,1.489,0.578,2.798,1.117,3.927
			c0.539,1.13,1.282,2.015,2.233,2.656c0.949,0.643,2.168,0.963,3.657,0.963c3.645,0,6.108-1.129,7.392-3.389
			c1.283-2.258,1.925-5.569,1.925-9.933c0-1.694-0.104-3.298-0.308-4.813c-0.206-1.514-0.578-2.836-1.117-3.966
			c-0.539-1.128-1.309-2.027-2.31-2.694S737.682,50.488,736.142,50.488z"/>
		<path fill="#404040" d="M760.626,47.1c2.052-1.128,4.582-2.079,7.584-2.849c3.003-0.771,6.044-1.155,9.125-1.155
			c3.028,0,5.556,0.27,7.584,0.809c2.027,0.539,3.657,1.438,4.89,2.695c1.232,1.258,2.104,2.939,2.618,5.043
			c0.513,2.105,0.77,4.697,0.77,7.777v12.012c0,1.54,0.308,2.593,0.924,3.157c0.616,0.565,1.513,0.847,2.695,0.847v7.393
			c-0.976,0.205-2.31,0.308-4.004,0.308c-2.208,0-4.031-0.308-5.467-0.924c-1.438-0.616-2.593-1.591-3.465-2.926
			c-1.438,1.335-3.234,2.413-5.39,3.233c-2.156,0.821-4.209,1.232-6.16,1.232c-2.824,0-5.109-0.347-6.853-1.04
			c-1.746-0.692-3.093-1.604-4.042-2.733c-0.951-1.128-1.579-2.425-1.887-3.888c-0.308-1.464-0.462-2.99-0.462-4.582
			c0-2.566,0.41-4.671,1.232-6.313c0.82-1.643,1.989-2.927,3.503-3.851c1.514-0.924,3.35-1.565,5.505-1.925
			c2.156-0.358,4.543-0.539,7.161-0.539c0.873,0,1.822,0.014,2.849,0.038c1.026,0.027,1.95,0.065,2.772,0.116v-1.771
			c0-2.156-0.591-3.772-1.771-4.851c-1.182-1.078-3.106-1.617-5.775-1.617c-2.208,0-4.312,0.27-6.314,0.809
			s-3.825,1.271-5.467,2.194L760.626,47.1z M782.109,66.272c-0.976-0.102-1.925-0.166-2.849-0.192
			c-0.924-0.025-1.823-0.038-2.695-0.038c-2.31,0-3.915,0.437-4.813,1.309c-0.899,0.874-1.348,2.105-1.348,3.696
			c0,1.694,0.32,2.991,0.962,3.889c0.642,0.898,1.887,1.348,3.735,1.348c0.924,0,2.065-0.192,3.426-0.578
			c1.359-0.385,2.553-1.064,3.581-2.04V66.272z"/>
		<path fill="#404040" d="M801.59,44.02h10.164l0.616,4.158c0.872-1.18,1.95-2.129,3.234-2.849c2.515-1.488,5.133-2.233,7.854-2.233
			c1.437,0,2.707,0.143,3.812,0.424c1.104,0.282,2.041,0.577,2.811,0.886l-2.541,8.624c-1.335-0.821-3.003-1.232-5.005-1.232
			c-2.054,0-4.03,0.514-5.929,1.54c-0.514,0.258-1.014,0.565-1.501,0.924c-0.488,0.36-0.937,0.797-1.347,1.31v27.258h-11.011V55.031
			L801.59,44.02z"/>
		<path fill="#404040" d="M856.259,25.386l11.011-1.463v48.51l0.77,10.396h-9.394l-0.77-2.311c-1.284,0.874-2.618,1.566-4.004,2.079
			c-2.259,0.771-4.646,1.155-7.161,1.155c-2.772,0-5.186-0.45-7.238-1.348c-2.054-0.897-3.748-2.182-5.082-3.85
			c-1.335-1.668-2.323-3.696-2.964-6.083c-0.643-2.388-0.962-5.044-0.962-7.97c0-3.08,0.333-5.929,1.001-8.547
			c0.667-2.618,1.745-4.876,3.234-6.776c1.488-1.898,3.413-3.388,5.775-4.466c2.361-1.078,5.261-1.617,8.701-1.617
			c1.898,0,3.592,0.258,5.082,0.771c0.358,0.104,0.705,0.205,1.04,0.308c0.333,0.104,0.654,0.206,0.962,0.308V25.386z
			 M856.259,52.028c-0.412-0.257-0.847-0.487-1.309-0.693c-1.386-0.41-2.645-0.616-3.773-0.616c-1.335,0-2.58,0.219-3.734,0.654
			c-1.155,0.438-2.144,1.155-2.965,2.156c-0.821,1.001-1.463,2.337-1.925,4.004c-0.462,1.669-0.693,3.734-0.693,6.198
			c0,8.214,2.849,12.32,8.547,12.32c1.694,0,3.285-0.436,4.774-1.309l1.078-0.848V52.028z"/>
	</g>
</g>
</svg>
