<?xml version="1.0" encoding="utf-8"?>
<!-- Generator: Adobe Illustrator 16.0.0, SVG Export Plug-In . SVG Version: 6.00 Build 0)  -->
<!DOCTYPE svg PUBLIC "-//W3C//DTD SVG 1.1//EN" "http://www.w3.org/Graphics/SVG/1.1/DTD/svg11.dtd">
<svg version="1.1" id="Layer_1" xmlns="http://www.w3.org/2000/svg" xmlns:xlink="http://www.w3.org/1999/xlink" x="0px" y="0px"
	 width="594.042px" height="105.189px" viewBox="0 0 594.042 105.189" enable-background="new 0 0 594.042 105.189"
	 xml:space="preserve">
<g>
	<g>
		<path fill="#4D4DDB" d="M68.976,49.79h34.022V25.911c0-4.318-0.326-7.959-0.975-10.912c-0.647-2.953-1.75-5.348-3.303-7.174
			c-1.55-1.824-3.62-3.156-6.213-3.984c-2.591-0.83-5.83-1.246-9.718-1.246h-0.601H68.976V49.79z"/>
		<polygon fill="#FF7900" points="59.573,49.79 59.573,2.595 45.643,2.595 40.456,2.595 3,2.595 3,34.646 3,49.79 		"/>
		<path fill="#207589" d="M34.377,59.188H3V79.28c0,4.318,0.319,7.955,0.969,10.912c0.647,2.953,1.749,5.346,3.306,7.168
			c1.553,1.83,3.623,3.158,6.215,3.988c2.589,0.83,5.83,1.246,9.714,1.246h0.603h10.571V59.188z"/>
		<polygon fill="#D82121" points="43.775,59.188 43.775,102.595 60.351,102.595 65.539,102.595 102.998,102.595 102.998,70.544 
			102.998,59.188 		"/>
	</g>
</g>
<g>
	<path fill="#212529" d="M127.54,27.003h44.044v8.701h-16.401v47.124h-11.165V35.704H127.54V27.003z"/>
	<path fill="#212529" d="M174.972,25.386l11.011-1.463v22.176c0.513-0.256,1.026-0.513,1.54-0.77
		c0.513-0.257,1.052-0.487,1.617-0.693c1.386-0.513,2.797-0.897,4.235-1.155c1.437-0.256,2.797-0.385,4.081-0.385
		c2.515,0,4.582,0.322,6.198,0.965c1.617,0.643,2.913,1.556,3.889,2.738c0.975,1.185,1.656,2.598,2.041,4.244
		c0.385,1.646,0.578,3.497,0.578,5.555v26.23h-11.011V59.094c0-0.972-0.039-1.894-0.115-2.765c-0.077-0.871-0.296-1.639-0.655-2.306
		c-0.359-0.665-0.898-1.203-1.617-1.611c-0.72-0.409-1.694-0.615-2.926-0.615c-1.797,0-3.337,0.231-4.62,0.691
		c-1.335,0.563-2.413,1.127-3.234,1.689v28.65h-11.011V25.386z"/>
	<path fill="#212529" d="M218.554,27.003h11.165v8.854h-11.165V27.003z M218.63,44.02h11.011v38.809H218.63V44.02z"/>
	<path fill="#212529" d="M237.88,44.02h10.318l0.231,2.695c1.334-0.872,2.746-1.565,4.235-2.079c3.08-1.026,5.877-1.54,8.393-1.54
		c2.515,0,4.582,0.321,6.198,0.963c1.617,0.643,2.913,1.54,3.889,2.694c0.975,1.155,1.656,2.58,2.041,4.274
		c0.385,1.693,0.578,3.568,0.578,5.62v26.181h-11.011V59.152c0-0.97-0.039-1.901-0.115-2.796c-0.077-0.894-0.296-1.673-0.655-2.337
		c-0.359-0.665-0.898-1.2-1.617-1.609c-0.72-0.409-1.694-0.613-2.926-0.613c-1.797,0-3.337,0.229-4.62,0.689
		c-1.232,0.512-2.285,1.048-3.157,1.609v28.732H238.65V54.415L237.88,44.02z"/>
	<path fill="#212529" d="M311.876,82.905c-2.567,0.563-5.005,0.847-7.315,0.847c-4.57,0-8.393-0.667-11.473-2.002
		c-3.08-1.334-5.583-3.246-7.507-5.736c-1.925-2.489-3.299-5.518-4.12-9.086c-0.822-3.567-1.232-7.61-1.232-12.128
		c0-9.702,2.129-16.901,6.391-21.599c4.26-4.697,10.934-7.045,20.02-7.045c4.568,0,8.418,0.667,11.55,2.002
		c3.13,1.335,5.66,3.26,7.584,5.774c1.925,2.516,3.298,5.57,4.12,9.163c0.82,3.594,1.232,7.649,1.232,12.166
		c0,5.75-0.847,10.46-2.541,14.13c-1.694,3.671-3.876,6.583-6.545,8.739l-0.847,0.693l11.319,10.24l-8.624,5.93L311.876,82.905z
		 M306.794,34.626c-2.875,0-5.288,0.461-7.238,1.381c-1.951,0.921-3.517,2.275-4.697,4.065c-1.182,1.79-2.015,3.977-2.502,6.559
		c-0.488,2.583-0.731,5.562-0.731,8.937c0,2.711,0.179,5.255,0.539,7.633c0.358,2.377,1.026,4.449,2.002,6.213
		c0.975,1.764,2.271,3.145,3.888,4.143c1.617,0.997,3.708,1.495,6.276,1.495c2.926,0,5.352-0.435,7.276-1.304s3.465-2.187,4.62-3.95
		c1.155-1.764,1.976-3.95,2.464-6.559c0.487-2.608,0.731-5.65,0.731-9.129c0-2.659-0.181-5.164-0.539-7.518
		c-0.36-2.352-1.014-4.41-1.963-6.174c-0.951-1.764-2.246-3.171-3.889-4.22C311.388,35.15,309.309,34.626,306.794,34.626z"/>
	<path fill="#212529" d="M359.636,27.732h21.152c6.156,0,10.886,1.268,14.188,3.801c3.302,2.534,4.953,6.638,4.953,12.312
		c0,3.8-0.758,6.904-2.272,9.311c-1.515,2.406-3.612,4.269-6.293,5.586c-0.199,0.102-0.398,0.203-0.596,0.304
		c-0.199,0.103-0.422,0.203-0.67,0.304l11.544,23.484h-11.693l-10.501-21.736h-9.087v21.736h-10.725V27.732z M370.361,36.321v16.188
		h9.98c1.042,0,2.073-0.139,3.091-0.419c1.017-0.28,1.924-0.764,2.719-1.451c0.793-0.687,1.439-1.59,1.937-2.711
		c0.496-1.12,0.745-2.521,0.745-4.2c0-1.425-0.261-2.621-0.782-3.589c-0.521-0.967-1.191-1.73-2.011-2.291
		c-0.819-0.559-1.739-0.953-2.756-1.183c-1.018-0.229-2-0.344-2.942-0.344H370.361z"/>
	<path fill="#212529" d="M414.229,66.042c0,2.618,0.502,4.801,1.509,6.545c1.358,2.26,4.075,3.388,8.149,3.388
		c1.509,0,2.842-0.102,4-0.308c1.157-0.205,2.213-0.462,3.169-0.771c0.955-0.308,1.849-0.654,2.679-1.039s1.647-0.757,2.452-1.116
		l2.038,6.853c-0.754,0.462-1.724,0.95-2.905,1.463c-1.183,0.514-2.49,0.963-3.924,1.348s-2.943,0.706-4.527,0.963
		c-1.585,0.256-3.158,0.385-4.716,0.385c-6.993,0-11.923-1.72-14.791-5.159c-2.818-3.49-4.226-8.624-4.226-15.399
		c0-13.398,6.288-20.098,18.865-20.098c3.471,0,6.301,0.476,8.489,1.425c2.188,0.95,3.898,2.271,5.131,3.966
		c1.232,1.693,2.075,3.695,2.528,6.006c0.453,2.31,0.679,4.851,0.679,7.623v3.927H414.229z M427.661,58.881
		c0-2.771-0.441-4.915-1.32-6.43c-0.881-1.514-2.377-2.271-4.49-2.271c-2.415,0-4.226,0.604-5.433,1.81
		c-1.207,1.207-1.886,2.965-2.037,5.274c-0.051,0.258-0.076,0.514-0.076,0.771s0,0.539,0,0.847H427.661z"/>
	<path fill="#212529" d="M443.734,44.02h9.206l0.755,2.311c1.257-0.82,2.54-1.514,3.848-2.079c2.163-0.771,4.552-1.155,7.169-1.155
		c5.382,0,9.369,1.721,11.96,5.159c2.59,3.439,3.886,8.111,3.886,14.014c0,3.132-0.328,6.02-0.981,8.663
		c-0.655,2.645-1.711,4.916-3.169,6.814c-1.46,1.899-3.358,3.376-5.697,4.428c-2.339,1.051-5.169,1.578-8.489,1.578
		c-1.862,0-3.547-0.258-5.056-0.771c-0.353-0.102-0.679-0.192-0.981-0.27c-0.302-0.076-0.604-0.166-0.905-0.269v16.939l-10.791,1.54
		V54.415L443.734,44.02z M455.279,74.974c0.453,0.206,0.879,0.36,1.283,0.462c1.257,0.462,2.49,0.693,3.698,0.693
		c1.308,0,2.528-0.218,3.66-0.654c1.132-0.436,2.1-1.155,2.905-2.156c0.804-1.001,1.434-2.335,1.886-4.004
		c0.453-1.668,0.679-3.734,0.679-6.198c0-8.213-2.792-12.32-8.376-12.32c-1.66,0-3.195,0.437-4.603,1.309
		c-0.202,0.104-0.39,0.22-0.566,0.347c-0.177,0.129-0.366,0.296-0.566,0.501V74.974z"/>
	<path fill="#212529" d="M484.557,63.27c0-6.775,1.584-11.831,4.754-15.169c3.169-3.336,8.225-5.005,15.167-5.005
		c3.521,0,6.452,0.476,8.791,1.425c2.339,0.95,4.213,2.31,5.622,4.081c1.408,1.771,2.415,3.927,3.018,6.468
		c0.604,2.541,0.906,5.403,0.906,8.586c0,6.775-1.598,11.819-4.792,15.13c-3.195,3.312-8.289,4.967-15.28,4.967
		c-3.522,0-6.452-0.476-8.791-1.425c-2.339-0.949-4.201-2.31-5.584-4.081c-1.384-1.771-2.365-3.913-2.943-6.43
		C484.846,69.303,484.557,66.453,484.557,63.27z M504.479,50.488c-3.471,0-5.823,1.129-7.056,3.388
		c-1.233,2.26-1.849,5.621-1.849,10.087c0,1.694,0.1,3.286,0.302,4.774c0.201,1.489,0.566,2.798,1.094,3.927
		c0.528,1.13,1.257,2.015,2.188,2.656c0.93,0.643,2.125,0.963,3.584,0.963c3.571,0,5.986-1.129,7.244-3.389
		c1.257-2.258,1.886-5.569,1.886-9.933c0-1.694-0.101-3.298-0.302-4.813c-0.202-1.514-0.566-2.836-1.094-3.966
		c-0.528-1.128-1.283-2.027-2.264-2.694S505.988,50.488,504.479,50.488z"/>
	<path fill="#212529" d="M527.493,44.02h9.96l0.604,4.158c0.854-1.18,1.911-2.129,3.169-2.849c2.464-1.488,5.03-2.233,7.697-2.233
		c1.408,0,2.653,0.143,3.735,0.424c1.081,0.282,2,0.577,2.754,0.886l-2.49,8.624c-1.309-0.821-2.943-1.232-4.905-1.232
		c-2.013,0-3.95,0.514-5.81,1.54c-0.504,0.258-0.994,0.565-1.472,0.924c-0.479,0.36-0.918,0.797-1.321,1.31v27.258h-10.791V55.031
		L527.493,44.02z"/>
	<path fill="#212529" d="M565.901,36.782l10.791-2.002v9.239h13.054v8.085h-13.054v15.862c0,0.976,0.038,1.899,0.113,2.772
		c0.076,0.873,0.276,1.644,0.604,2.31c0.327,0.668,0.83,1.207,1.509,1.617c0.679,0.411,1.596,0.616,2.754,0.616
		c1.559,0,2.968-0.166,4.226-0.501c1.257-0.333,2.464-0.809,3.622-1.425l1.66,7.238c-3.875,2.105-8.201,3.157-12.979,3.157
		c-2.516,0-4.565-0.321-6.15-0.963c-1.584-0.641-2.83-1.54-3.735-2.694c-0.905-1.155-1.522-2.566-1.849-4.235
		c-0.328-1.668-0.49-3.528-0.49-5.582V52.104h-6.49v-7.16l6.414-0.771V36.782z"/>
</g>
</svg>
